<?xml version="1.0" standalone="no"?>
<!DOCTYPE svg PUBLIC "-//W3C//DTD SVG 20010904//EN"
 "http://www.w3.org/TR/2001/REC-SVG-20010904/DTD/svg10.dtd">
<svg version="1.0" xmlns="http://www.w3.org/2000/svg"
 width="600.000000pt" height="629.000000pt" viewBox="0 0 600.000000 629.000000"
 preserveAspectRatio="xMidYMid meet">
<g transform="translate(0.000000,629.000000) scale(0.100000,-0.100000)"
fill="#000000" stroke="none">
<path d="M1146 5320 c-37 -12 -75 -47 -92 -87 -12 -27 -14 -263 -14 -1398 l0
-1366 -61 -56 c-126 -117 -215 -279 -250 -453 -17 -89 -12 -256 11 -346 90
-352 387 -603 749 -630 233 -17 466 71 636 241 167 166 251 373 243 599 l-3
96 112 0 111 0 6 -28 c14 -64 37 -269 48 -424 11 -158 5 -287 -18 -365 -8 -30
29 -67 59 -57 12 4 56 34 97 66 41 33 98 77 127 99 l51 40 132 -105 c72 -58
138 -106 145 -106 8 0 74 47 145 105 72 58 133 105 135 105 2 0 53 -40 114
-90 148 -120 153 -123 184 -111 32 12 40 37 27 81 -18 63 -23 222 -11 375 11
140 33 325 47 387 l6 28 722 0 723 0 34 23 c19 12 42 38 52 57 16 33 17 127
15 1632 -3 1595 -3 1597 -24 1624 -11 15 -33 37 -48 48 l-27 21 -2077 2
c-1148 1 -2090 -3 -2106 -7z m35 -32 c0 -7 2 -8 5 -3 3 8 2638 11 4135 5 4 0
20 -12 38 -27 l31 -28 0 -1609 c0 -1289 -2 -1611 -12 -1618 -7 -4 -9 -8 -4 -8
5 0 1 -9 -9 -20 -10 -11 -26 -20 -37 -20 -10 0 -18 -3 -18 -7 0 -5 -318 -7
-706 -5 -635 2 -709 1 -731 -14 -14 -8 -22 -18 -20 -21 3 -3 2 -15 -3 -28 -5
-13 -11 -43 -15 -66 -3 -24 -8 -51 -10 -59 -3 -9 -7 -49 -11 -90 -3 -41 -9
-124 -14 -185 -10 -128 -5 -305 10 -354 11 -40 -1 -64 -28 -54 -9 4 -44 31
-76 60 -33 29 -63 53 -67 53 -4 0 -23 14 -41 31 -18 17 -46 37 -61 45 -27 15
-30 14 -82 -25 -29 -22 -65 -52 -80 -65 -15 -14 -36 -28 -46 -31 -11 -4 -16
-11 -13 -17 5 -7 2 -9 -8 -5 -10 3 -19 -3 -26 -18 -13 -28 -59 -42 -76 -22 -6
7 -28 26 -49 41 -21 15 -34 32 -31 38 4 7 2 8 -4 4 -6 -4 -19 2 -29 14 -10 11
-23 20 -30 20 -7 0 -13 4 -13 8 0 10 -84 72 -97 72 -6 0 -113 -81 -169 -129
-7 -5 -14 -8 -17 -5 -2 2 -10 -3 -18 -13 -12 -15 -12 -16 1 -9 8 5 2 -3 -15
-18 -53 -45 -94 -27 -73 31 22 65 9 486 -22 648 -5 28 -11 66 -13 87 -9 70
-18 75 -148 76 -110 0 -117 -1 -127 -21 -6 -12 -13 -83 -16 -157 -4 -113 -9
-146 -31 -205 -35 -92 -103 -222 -134 -256 -15 -15 -38 -40 -52 -56 -34 -37
-91 -83 -102 -83 -4 0 -5 -5 -2 -10 4 -6 3 -9 -2 -8 -11 3 -55 -22 -71 -41 -8
-9 -10 -10 -7 -3 4 8 -11 2 -34 -12 -23 -15 -41 -23 -41 -19 0 5 -4 3 -8 -4
-13 -21 -191 -55 -292 -56 -92 -2 -260 20 -260 33 0 4 -6 7 -14 7 -7 0 -36 10
-62 23 -27 13 -54 23 -61 23 -7 0 -10 4 -7 9 3 4 -2 8 -12 8 -18 0 -54 27
-137 102 -29 26 -55 48 -59 48 -5 0 -8 6 -8 14 0 8 -8 21 -17 28 -23 17 -73
90 -73 107 0 7 -5 9 -12 5 -6 -4 -8 -3 -5 3 4 6 0 19 -8 29 -8 10 -15 26 -15
35 0 9 -7 30 -15 47 -33 65 -47 146 -47 274 0 69 3 132 7 138 4 6 13 37 20 68
8 32 19 71 26 87 7 17 13 32 14 35 0 3 11 25 24 50 21 39 38 65 81 117 6 7 11
16 13 19 3 10 62 69 71 71 4 1 21 19 37 39 l29 37 -2 1358 c-2 746 0 1355 4
1353 4 -3 6 4 6 13 -2 39 11 56 67 90 26 16 35 16 36 1z"/>
<path d="M1147 5224 c-33 -35 -32 -9 -32 -1359 0 -1239 1 -1330 20 -1345 14
-12 65 -3 65 11 0 5 3 8 8 7 15 -3 62 15 62 24 0 5 5 6 10 3 6 -3 10 -1 10 4
0 6 3 10 8 9 4 0 15 2 25 7 17 7 17 67 16 1186 -1 1178 0 1179 20 1213 14 23
31 36 53 40 27 5 952 7 3629 6 20 0 91 -55 82 -64 -3 -3 -2 -6 3 -6 7 0 9
-1382 4 -2653 0 -18 -12 -40 -33 -62 l-33 -34 -525 -1 c-617 -2 -591 -1 -607
-17 -16 -15 -37 -75 -46 -129 -14 -79 -63 -74 719 -74 l693 1 26 26 26 26 0
1577 0 1577 -23 26 -22 27 -2067 0 -2067 0 -24 -26z m4161 -16 c9 -9 12 -376
12 -1590 0 -1549 0 -1577 -19 -1588 -31 -16 -1404 -14 -1398 3 3 6 13 42 23
79 l18 68 554 0 c544 0 555 0 592 21 20 11 45 35 56 52 18 31 19 71 19 1367 0
1325 0 1335 -20 1370 -12 19 -36 43 -55 55 -35 20 -42 20 -1855 20 -1813 0
-1820 0 -1855 -20 -19 -12 -43 -36 -55 -55 -20 -35 -20 -46 -20 -1213 l0
-1178 -25 -6 c-14 -3 -54 -19 -90 -35 -36 -16 -59 -24 -52 -17 9 10 12 291 12
1334 0 1014 3 1324 12 1333 17 17 4129 17 4146 0z"/>
<path d="M3216 4992 c-1679 -2 -1780 -3 -1793 -20 -8 -10 -11 -11 -7 -2 7 12
5 13 -8 3 -8 -7 -17 -11 -19 -9 -10 10 -11 -100 -15 -1172 -4 -1057 -3 -1136
13 -1163 l17 -29 131 -2 c143 -1 134 -1 190 -13 22 -4 43 -8 48 -7 4 1 7 -3 7
-9 0 -5 5 -7 10 -4 6 4 28 -2 49 -14 22 -11 42 -17 45 -14 3 4 6 1 6 -5 0 -11
38 -28 53 -24 5 1 6 -2 3 -7 -4 -5 -2 -12 4 -16 5 -3 10 0 10 7 0 9 3 9 10 -2
5 -8 10 -12 10 -8 0 4 14 -6 30 -24 17 -17 30 -27 30 -22 0 4 31 -24 70 -64
38 -39 70 -76 70 -81 0 -5 9 -13 20 -16 11 -4 18 -10 15 -15 -6 -10 232 -14
269 -4 14 3 23 10 20 15 -3 5 0 9 6 9 7 0 9 8 5 21 -4 12 -9 29 -10 38 -2 9
-4 16 -5 16 -1 0 -3 11 -5 25 -2 14 -13 56 -24 94 -19 65 -32 90 -49 92 -51 6
-104 57 -128 122 -20 53 -41 82 -60 82 -7 0 -27 20 -44 44 l-30 45 0 666 c0
666 0 667 22 706 41 73 -24 69 1050 68 1085 -1 998 0 998 -11 0 -4 6 -8 13 -8
7 0 25 -19 40 -42 l27 -42 0 -674 c0 -582 -3 -676 -15 -689 -9 -8 -13 -19 -9
-24 3 -5 1 -8 -4 -7 -6 2 -18 -5 -29 -14 -10 -9 -30 -28 -45 -41 -15 -14 -28
-24 -30 -22 -2 2 -3 -12 -4 -30 -1 -52 -43 -95 -116 -118 -21 -7 -48 -57 -64
-122 -7 -27 -20 -77 -29 -110 -15 -54 -15 -60 -1 -71 9 -6 13 -14 9 -18 -4 -3
235 -6 529 -5 l536 1 24 25 23 25 0 1323 c0 1444 4 1351 -55 1357 -14 2 -27 5
-30 8 -3 3 -806 4 -1784 2z m1825 -42 c19 -11 19 -36 19 -1324 0 -1078 -2
-1316 -13 -1325 -9 -7 -177 -12 -543 -14 l-530 -3 37 125 c36 124 36 125 75
142 53 22 112 89 120 136 5 31 14 43 48 64 28 17 50 42 64 71 22 44 22 49 22
708 0 656 0 664 -21 707 -13 27 -37 55 -63 71 l-41 27 -980 0 -980 0 -41 -27
c-26 -16 -50 -44 -63 -71 -21 -43 -21 -51 -21 -708 0 -623 2 -666 19 -704 21
-45 44 -69 82 -84 20 -7 28 -19 32 -48 8 -50 67 -120 120 -142 40 -17 40 -18
73 -132 19 -63 34 -120 34 -126 0 -10 -33 -13 -132 -12 l-133 1 -51 61 c-27
34 -77 83 -109 110 -69 55 -207 128 -285 150 -89 25 -219 39 -297 32 l-73 -7
0 1154 c0 884 3 1157 12 1166 16 16 3589 18 3619 2z"/>
<path d="M4293 4335 c0 -8 4 -12 9 -9 5 3 6 10 3 15 -9 13 -12 11 -12 -6z"/>
<path d="M1984 2596 c1 -8 5 -18 8 -22 4 -3 5 1 4 10 -1 8 -5 18 -8 22 -4 3
-5 -1 -4 -10z"/>
<path d="M2251 4239 c-12 -12 -27 -33 -33 -47 -12 -30 -25 -1226 -14 -1286 4
-19 16 -46 27 -60 26 -33 36 -26 79 51 17 30 34 52 37 49 3 -3 18 4 34 14 27
20 45 20 858 20 775 0 833 -1 859 -17 41 -27 55 -42 82 -92 14 -25 29 -46 34
-46 5 0 18 13 30 28 21 28 21 33 21 670 0 699 0 693 -56 722 -24 13 -169 15
-982 15 -951 0 -954 0 -976 -21z m1959 -29 c20 -20 20 -33 20 -684 0 -394 -4
-667 -9 -671 -5 -3 -14 10 -20 28 -13 39 -61 91 -105 115 -28 16 -103 17 -862
17 l-831 0 -49 -30 c-36 -23 -55 -44 -75 -83 -14 -28 -29 -49 -32 -45 -4 3 -7
307 -7 674 l0 668 22 15 c20 14 129 16 975 16 940 0 953 0 973 -20z"/>
<path d="M2455 2943 c-86 -19 -116 -57 -122 -154 -3 -61 -1 -74 21 -112 14
-23 26 -38 26 -33 0 6 7 1 15 -10 8 -10 15 -15 15 -10 0 6 7 1 15 -10 8 -10
15 -14 15 -9 0 7 272 9 800 8 552 -2 800 0 800 8 0 5 4 8 9 5 13 -8 42 4 35
15 -3 5 1 9 8 9 24 0 46 70 43 135 -1 33 -4 61 -5 63 -1 1 -3 5 -4 10 -5 24
-31 54 -59 69 -30 17 -88 18 -812 19 -429 1 -789 0 -800 -3z m1606 -43 c31
-17 49 -64 49 -131 0 -56 -3 -64 -34 -95 l-34 -34 -807 0 -807 0 -34 34 c-31
31 -34 39 -34 96 0 66 10 95 44 122 19 16 79 18 829 18 536 0 815 -3 828 -10z"/>
<path d="M2540 2552 c-29 -23 -29 -23 70 -112 25 -22 49 -40 54 -40 15 0 65
-48 58 -55 -4 -5 -2 -5 4 -2 6 3 17 -2 26 -11 8 -9 27 -26 42 -36 15 -11 37
-29 50 -40 89 -78 88 -77 142 -41 20 14 41 22 47 18 6 -3 7 -1 3 6 -8 13 40
61 61 61 7 0 20 11 29 25 9 14 21 22 28 18 6 -3 8 -3 4 2 -4 4 7 19 23 32 29
24 30 28 27 96 -3 64 -6 73 -27 83 -17 9 -113 13 -321 14 -277 1 -298 -1 -320
-18z m640 -82 l-1 -65 -115 -90 c-63 -49 -118 -91 -122 -93 -5 -1 -355 270
-394 306 -4 4 137 7 312 7 l320 0 0 -65z"/>
<path d="M3293 2555 c-33 -14 -33 -15 -33 -82 0 -68 20 -120 41 -108 5 4 9 -1
9 -9 0 -9 8 -16 19 -16 11 0 23 -5 27 -12 5 -7 2 -9 -7 -3 -8 4 0 -4 16 -19
17 -14 35 -25 41 -26 6 0 20 -10 31 -22 37 -41 74 -68 91 -68 10 0 29 11 44
25 15 14 32 25 38 25 6 0 8 5 5 10 -3 6 -2 10 4 10 5 0 23 11 39 25 16 13 33
21 37 17 5 -4 5 -2 2 4 -4 7 0 14 8 18 8 3 15 0 15 -7 0 -8 4 -7 10 3 6 9 5
17 -2 21 -6 4 -1 10 13 14 13 4 35 21 48 36 13 16 29 29 35 29 6 0 26 14 44
30 18 17 38 30 44 30 6 0 9 3 5 6 -3 4 4 15 16 25 l22 19 -24 20 c-22 19 -37
20 -315 20 -228 -1 -298 -4 -323 -15z m627 -25 c-1 -9 -380 -305 -390 -305 -5
0 -62 40 -125 90 l-115 89 0 62 c0 33 2 63 4 65 6 6 626 5 626 -1z"/>
<path d="M3339 2433 c-8 -9 -9 -14 -2 -10 6 4 13 1 16 -5 3 -7 4 -3 4 10 -1
26 -1 26 -18 5z"/>
<path d="M1405 2548 c-59 -12 -64 -13 -71 -21 -4 -4 -16 -7 -26 -7 -25 0 -105
-36 -143 -64 -16 -13 -38 -25 -47 -29 -10 -3 -18 -11 -18 -17 0 -6 -4 -9 -8
-6 -13 8 -12 -32 1 -42 29 -21 456 -38 538 -20 26 6 41 36 29 59 -18 33 -53
69 -67 69 -7 0 -13 4 -13 9 0 5 -17 17 -37 26 -21 10 -45 23 -53 30 -24 19
-42 22 -85 13z m188 -115 c31 -24 57 -48 57 -53 0 -17 -210 -23 -354 -10 -78
7 -155 11 -169 8 -42 -8 -32 4 36 44 78 46 124 65 212 88 l70 18 45 -25 c25
-15 71 -46 103 -70z"/>
<path d="M1520 2426 c0 -2 8 -10 18 -17 15 -13 16 -12 3 4 -13 16 -21 21 -21
13z"/>
<path d="M1643 2538 c-13 -22 -9 -30 47 -89 61 -63 90 -78 110 -54 7 8 17 12
24 8 6 -3 8 -3 4 2 -4 4 4 16 17 27 14 11 25 23 25 28 0 14 -42 50 -52 44 -4
-3 -8 -1 -8 4 0 10 -104 42 -138 42 -11 0 -24 -6 -29 -12z m106 -36 c46 -15
86 -32 88 -38 2 -5 -14 -20 -35 -32 l-39 -21 -20 27 c-11 15 -37 39 -57 52
-33 23 -46 41 -28 39 4 0 45 -13 91 -27z"/>
<path d="M1917 2429 c-10 -6 -30 -22 -45 -37 -15 -15 -39 -35 -52 -45 -14 -10
-18 -15 -10 -11 12 5 12 4 3 -6 -9 -10 -6 -21 14 -51 14 -22 28 -39 32 -40 37
-5 52 -4 72 4 13 5 51 11 84 14 39 3 66 10 78 22 17 16 15 20 -46 82 -65 68
-99 85 -130 68z m92 -69 c33 -27 62 -53 65 -58 3 -5 -27 -12 -67 -15 -40 -4
-88 -10 -107 -13 -31 -5 -37 -2 -51 22 -17 28 -17 28 25 57 22 17 45 36 49 44
12 20 22 17 86 -37z"/>
<path d="M2568 2364 c-9 -20 -9 -30 1 -46 7 -11 8 -18 3 -14 -5 3 0 -26 11
-64 12 -38 25 -66 30 -63 6 3 7 1 4 -4 -4 -6 0 -35 7 -64 16 -60 65 -112 95
-101 32 12 148 111 154 131 4 16 -9 32 -56 72 -34 29 -75 66 -91 83 -16 17
-25 25 -21 18 6 -11 3 -11 -14 0 -12 7 -21 16 -21 19 0 7 -73 59 -83 59 -4 0
-13 -12 -19 -26z m167 -123 c11 -9 42 -32 67 -51 26 -19 46 -38 45 -42 -1 -3
-33 -31 -70 -62 -83 -68 -98 -64 -126 34 -11 36 -29 99 -41 140 -12 41 -24 84
-27 94 -4 12 19 -1 63 -39 38 -31 78 -65 89 -74z"/>
<path d="M3858 2378 c-7 -7 -25 -19 -40 -27 -15 -8 -25 -18 -22 -23 3 -4 -1
-8 -9 -8 -7 0 -23 -10 -35 -22 -39 -41 -59 -58 -68 -58 -5 0 -17 -8 -26 -17
-9 -10 -28 -29 -42 -42 -14 -13 -26 -28 -26 -33 0 -11 50 -59 116 -113 38 -31
60 -37 81 -22 7 5 18 5 24 1 8 -4 9 -3 5 4 -4 6 0 23 9 36 18 26 18 28 30 94
4 23 11 45 16 48 4 2 6 11 3 18 -3 8 -1 17 5 21 6 3 11 17 11 30 0 13 5 36 12
50 8 19 8 31 0 50 -13 28 -24 31 -44 13z m-9 -152 c-21 -76 -39 -144 -39 -150
0 -6 -11 -19 -24 -28 -23 -17 -25 -16 -95 38 -39 31 -71 58 -70 62 0 7 262
221 266 218 1 -1 -16 -64 -38 -140z"/>
<path d="M3203 2327 c-16 -12 -37 -29 -45 -37 -27 -26 -58 -50 -64 -50 -4 0
-27 -20 -52 -45 -39 -40 -43 -47 -31 -62 21 -27 69 -74 69 -67 0 3 19 -10 43
-29 l42 -35 35 17 c33 16 37 16 67 -1 36 -19 58 -15 74 13 5 11 15 19 22 19
14 0 107 86 107 100 0 5 -10 16 -22 24 -12 9 -18 16 -13 16 6 0 -6 10 -25 22
-35 22 -88 68 -61 53 10 -5 12 -4 7 4 -4 6 -11 9 -14 7 -4 -2 -19 4 -32 15
-79 63 -74 61 -107 36z m137 -94 c54 -43 99 -81 100 -84 0 -4 -32 -31 -72 -62
l-71 -55 -30 18 c-30 19 -50 17 -78 -7 -14 -11 -25 -6 -87 43 -40 32 -72 60
-71 63 0 8 192 161 202 161 4 0 52 -35 107 -77z"/>
<path d="M3196 2118 c3 -5 10 -6 15 -3 13 9 11 12 -6 12 -8 0 -12 -4 -9 -9z"/>
<path d="M1650 2303 c-77 -16 -317 -18 -405 -2 -33 6 -82 8 -109 4 -99 -13
-223 -86 -255 -150 -35 -71 -62 -138 -56 -143 3 -3 1 -10 -4 -16 -11 -14 -19
-71 -26 -185 -5 -86 6 -135 33 -146 18 -7 34 4 26 17 -4 6 -3 8 2 5 6 -3 26
14 45 38 18 25 42 47 51 50 10 4 26 17 37 31 10 13 22 24 25 24 3 0 14 8 25
18 32 30 84 67 89 64 3 -2 8 1 12 8 4 6 14 12 23 14 9 1 28 12 42 24 14 12 25
19 25 15 0 -3 10 2 22 13 14 13 19 14 14 4 -4 -8 2 -4 14 10 12 14 19 19 15
13 -4 -9 -1 -11 9 -7 9 3 16 10 16 14 0 5 10 12 23 15 38 12 97 39 97 45 0 3
9 6 21 7 11 1 27 8 36 15 8 6 22 13 30 14 8 1 22 6 31 10 22 9 29 11 48 13 8
0 12 6 9 12 -4 6 -1 9 6 8 18 -4 112 32 121 45 4 6 8 7 8 2 0 -19 30 18 30 38
0 19 -48 78 -61 75 -2 -1 -33 -8 -69 -16z m110 -63 c0 -3 -30 -16 -67 -28 -38
-13 -81 -30 -98 -37 -16 -7 -75 -32 -130 -55 -251 -105 -459 -239 -583 -374
l-51 -56 -6 55 c-13 102 6 218 56 345 25 65 36 79 77 107 107 71 184 91 283
73 82 -15 350 -13 424 3 57 12 61 12 77 -7 10 -12 18 -23 18 -26z"/>
<path d="M946 2148 c3 -5 10 -6 15 -3 13 9 11 12 -6 12 -8 0 -12 -4 -9 -9z"/>
<path d="M2048 2215 c-2 -2 -29 -5 -61 -8 -58 -5 -97 -26 -97 -53 0 -17 50
-115 67 -133 9 -8 24 -11 41 -7 20 5 23 4 12 -3 -12 -8 -8 -10 15 -11 51 0 75
-4 75 -13 0 -4 5 -5 10 -2 6 3 10 1 10 -6 0 -7 3 -10 6 -6 4 3 13 -1 21 -9 8
-8 18 -12 23 -9 5 3 12 0 16 -6 5 -8 3 -9 -6 -4 -9 5 -11 4 -6 -3 4 -7 13 -12
20 -12 7 0 25 -9 39 -20 l25 -20 17 26 c14 21 14 28 3 42 -11 13 -11 14 0 8
11 -6 11 -4 3 10 -5 11 -17 43 -26 71 -9 29 -21 55 -26 58 -5 4 -9 15 -9 26 0
10 -4 19 -10 19 -5 0 -9 5 -7 11 4 20 -48 47 -100 52 -29 2 -54 3 -55 2z m131
-64 c18 -23 63 -145 75 -204 l6 -27 -47 36 c-65 50 -125 75 -193 81 l-57 6
-25 63 -25 63 26 4 c14 3 70 4 124 3 91 -1 99 -3 116 -25z"/>
<path d="M2280 2190 c-19 -16 -21 -23 -11 -29 7 -5 12 -11 11 -15 -5 -15 21
-93 40 -123 l20 -33 109 0 c139 0 153 9 132 90 -5 19 -12 47 -15 61 -13 58
-31 66 -151 68 -100 2 -113 0 -135 -19z m264 -77 c10 -38 20 -74 23 -80 4 -10
-22 -13 -109 -13 l-113 0 -21 63 c-12 34 -25 70 -29 80 -7 16 2 17 112 17
l119 0 18 -67z"/>
<path d="M1765 2157 c-16 -5 -46 -16 -65 -25 -19 -8 -44 -16 -54 -17 -11 -1
-22 -7 -24 -13 -2 -7 -12 -12 -22 -12 -10 0 -22 -4 -25 -10 -3 -5 -13 -10 -22
-10 -9 0 -35 -8 -57 -18 -23 -11 -54 -25 -71 -32 -16 -8 -37 -15 -45 -15 -9
-1 -46 -23 -83 -48 -38 -26 -65 -42 -61 -35 4 7 -8 1 -26 -13 -19 -13 -42 -28
-51 -34 -39 -24 -75 -51 -90 -67 -9 -10 -20 -18 -26 -18 -25 0 -186 -190 -188
-222 0 -3 -3 -10 -7 -14 -4 -4 -3 -13 3 -21 6 -7 9 -13 6 -13 -10 0 45 -104
62 -118 13 -11 13 -12 1 -6 -13 7 -13 6 0 -12 8 -10 28 -31 44 -46 16 -16 26
-28 21 -28 -15 0 79 -79 93 -80 7 0 11 -4 7 -9 -3 -5 4 -12 15 -16 11 -3 20
-11 20 -16 0 -6 5 -7 10 -4 5 3 10 1 10 -5 0 -6 4 -9 8 -6 5 3 16 -4 25 -15 9
-10 25 -19 34 -19 18 1 65 30 48 30 -5 0 1 7 13 16 12 8 22 21 22 29 0 7 12
23 28 35 15 12 20 18 12 14 -9 -4 -7 2 6 17 38 43 103 146 97 153 -4 3 -2 6 4
6 5 0 22 24 38 53 15 28 37 64 47 80 11 15 17 27 13 27 -3 0 6 16 21 35 14 19
23 35 18 35 -4 0 1 7 12 16 10 8 12 12 4 8 -12 -6 -12 -4 1 12 9 10 24 34 34
53 9 18 30 46 46 62 16 16 27 29 23 29 -4 0 6 11 22 25 93 80 127 105 135 99
5 -3 8 -1 7 5 -2 5 6 16 16 24 18 14 19 16 4 38 -8 14 -18 38 -22 56 -7 28
-25 51 -51 65 -5 3 -23 1 -40 -5z m71 -82 c14 -33 20 -61 15 -63 -5 -2 -30
-17 -55 -33 -77 -51 -166 -158 -235 -280 -147 -260 -259 -435 -322 -503 l-27
-29 -54 34 c-110 70 -222 196 -268 303 l-19 45 38 58 c73 113 227 234 431 337
128 65 445 196 464 192 4 -1 19 -29 32 -61z"/>
<path d="M1765 2031 c-3 -5 -2 -12 3 -15 5 -3 9 1 9 9 0 17 -3 19 -12 6z"/>
<path d="M936 1592 c-3 -5 1 -9 9 -9 8 0 12 4 9 9 -3 4 -7 8 -9 8 -2 0 -6 -4
-9 -8z"/>
<path d="M1299 1393 c-12 -16 -12 -17 2 -6 9 7 20 9 24 5 5 -4 5 -1 1 6 -9 16
-11 15 -27 -5z"/>
<path d="M2909 2088 c-12 -13 -19 -16 -14 -8 4 8 -4 2 -19 -14 -14 -16 -26
-26 -26 -22 0 4 -7 0 -16 -9 -9 -9 -27 -23 -40 -31 -14 -10 -21 -23 -19 -35 4
-20 45 -78 45 -64 0 5 19 -10 41 -33 42 -41 90 -63 97 -43 2 6 8 9 13 5 5 -3
12 2 15 10 3 9 10 16 14 16 5 0 19 9 32 20 64 55 82 72 68 64 -12 -6 -13 -5
-2 8 16 19 -11 56 -66 89 -20 13 -48 34 -61 48 -13 15 -20 19 -15 11 7 -13 5
-13 -8 -2 -14 11 -20 9 -39 -10z m102 -64 c38 -31 68 -60 67 -64 -7 -18 -133
-110 -145 -106 -7 3 -42 28 -77 57 l-64 51 71 59 c40 32 73 58 75 59 2 0 34
-25 73 -56z"/>
<path d="M3555 2105 c-5 -2 -22 -6 -37 -9 -14 -3 -40 -19 -56 -36 -17 -16 -35
-30 -40 -30 -5 0 -17 -10 -26 -22 -9 -13 -14 -17 -11 -10 10 21 -4 13 -15 -8
-18 -33 -3 -57 64 -105 35 -25 69 -52 76 -60 11 -13 20 -9 71 27 32 22 59 45
59 51 0 6 3 8 6 4 7 -6 54 46 54 60 0 4 -20 26 -44 47 -29 25 -43 44 -39 55 4
12 2 13 -4 3 -11 -14 -46 -5 -37 9 3 5 0 9 -6 9 -6 0 -8 5 -5 10 3 6 5 10 3 9
-2 0 -7 -2 -13 -4z m46 -81 c38 -31 69 -59 69 -63 0 -6 -99 -87 -127 -104 -10
-6 -37 9 -88 48 l-74 57 72 58 c40 32 73 59 75 59 2 1 34 -24 73 -55z"/>
<path d="M3220 1959 c0 -5 -3 -8 -7 -7 -12 3 -74 -38 -67 -44 3 -4 -4 -9 -15
-13 -12 -3 -26 -15 -31 -26 -6 -10 -15 -19 -21 -19 -5 0 -25 -16 -45 -35 -32
-33 -34 -37 -20 -56 8 -11 24 -27 35 -36 12 -8 18 -19 15 -25 -4 -6 -2 -8 4
-4 6 3 16 0 24 -7 7 -7 31 -26 53 -42 22 -17 46 -38 53 -48 15 -20 57 -14 83
12 47 45 82 74 75 61 -5 -8 0 -6 11 5 11 11 39 37 62 58 22 21 41 42 41 46 0
11 -46 57 -90 90 -19 14 -44 35 -55 47 -33 35 -105 65 -105 43z m219 -181 c1
-5 -124 -107 -189 -155 -14 -10 -33 1 -118 69 -56 44 -102 83 -101 87 0 3 46
42 102 86 l102 80 102 -80 c56 -44 102 -83 102 -87z m-138 145 c13 -16 12 -17
-3 -4 -10 7 -18 15 -18 17 0 8 8 3 21 -13z"/>
<path d="M3153 1825 c0 -8 4 -12 9 -9 5 3 6 10 3 15 -9 13 -12 11 -12 -6z"/>
<path d="M1982 1947 c-10 -12 -8 -31 7 -98 11 -46 22 -113 26 -149 8 -83 8
-258 -1 -290 -3 -14 -7 -34 -8 -45 -1 -11 -8 -39 -16 -62 -10 -34 -11 -45 0
-58 7 -8 17 -15 23 -15 14 0 136 127 129 134 -3 3 0 6 7 6 7 0 9 5 6 10 -3 6
-2 10 3 10 8 0 74 112 78 133 1 4 3 9 4 12 1 3 3 8 5 13 1 4 7 19 13 33 12 30
32 132 32 166 0 16 -24 48 -73 97 -40 41 -69 72 -63 69 5 -4 6 -1 2 6 -5 7
-14 10 -21 7 -7 -2 -18 1 -24 7 -6 6 -11 7 -11 2 0 -6 -4 -4 -9 4 -13 20 -94
27 -109 8z m120 -45 c27 -14 73 -52 104 -84 l56 -59 -6 -61 c-14 -124 -87
-273 -186 -381 -35 -37 -64 -66 -66 -65 -1 2 7 30 19 63 19 54 22 80 22 250 0
163 -4 202 -23 278 -12 49 -22 91 -22 93 0 9 57 -10 102 -34z"/>
<path d="M2165 1561 c-3 -5 -2 -12 3 -15 5 -3 9 1 9 9 0 17 -3 19 -12 6z"/>
<path d="M1856 1924 c-9 -8 -20 -12 -26 -9 -5 3 -15 -5 -22 -19 -6 -14 -15
-26 -19 -26 -12 0 -95 -88 -110 -117 -14 -29 -66 -120 -102 -183 -11 -19 -31
-55 -44 -79 -43 -75 -136 -215 -152 -229 -9 -8 -10 -10 -3 -7 7 4 -7 -20 -32
-53 -25 -33 -46 -67 -46 -75 0 -19 36 -51 49 -43 5 4 12 2 15 -3 22 -35 396
-25 396 11 0 5 5 6 11 3 5 -4 19 1 30 11 10 9 19 13 19 9 0 -5 13 4 30 20 16
15 27 32 24 37 -3 4 0 8 6 8 6 0 8 5 5 10 -3 6 -2 10 4 10 8 0 18 19 26 50 1
3 5 12 8 20 57 131 66 316 27 520 -16 84 -27 120 -42 133 -25 21 -32 21 -52 1z
m57 -92 c39 -182 44 -319 16 -455 -16 -77 -82 -212 -113 -233 -43 -28 -173
-54 -269 -54 -87 0 -227 24 -227 39 0 4 9 16 20 26 45 41 194 277 318 504 48
86 124 178 186 222 21 16 42 29 46 29 4 0 14 -35 23 -78z"/>
<path d="M1656 1578 c3 -5 10 -6 15 -3 13 9 11 12 -6 12 -8 0 -12 -4 -9 -9z"/>
<path d="M1566 1418 c3 -5 10 -6 15 -3 13 9 11 12 -6 12 -8 0 -12 -4 -9 -9z"/>
<path d="M2692 1913 c-6 -3 -10 -9 -6 -14 3 -5 1 -9 -5 -9 -11 0 -10 -13 10
-129 7 -45 20 -82 31 -93 17 -17 20 -17 43 -2 14 9 22 21 18 27 -3 6 -1 7 5 3
16 -10 91 61 89 84 -1 11 -3 18 -5 16 -1 -2 -24 16 -49 40 -25 24 -49 44 -54
44 -4 0 -15 8 -25 17 -18 19 -32 23 -52 16z m157 -134 c1 -3 -25 -27 -57 -52
l-59 -46 -12 87 c-7 48 -15 98 -18 111 -5 20 5 15 70 -35 42 -33 76 -62 76
-65z"/>
<path d="M3729 1904 c-7 -8 -26 -22 -43 -31 -17 -9 -38 -24 -46 -34 -55 -65
-53 -57 -30 -89 12 -17 25 -30 29 -30 5 0 21 -11 37 -25 54 -47 52 -47 73 -26
27 27 52 211 32 235 -17 20 -35 20 -52 0z m37 -31 c-3 -10 -10 -56 -16 -103
-7 -47 -13 -86 -14 -87 -4 -4 -116 89 -116 95 1 9 132 112 143 112 5 0 6 -8 3
-17z"/>
<path d="M2916 1725 c-10 -8 -24 -12 -30 -8 -6 3 -8 3 -4 -2 8 -9 0 -17 -62
-65 -25 -19 -48 -39 -52 -44 -4 -6 -14 -4 -25 5 -16 12 -17 12 -6 -2 10 -12
10 -20 -2 -36 -13 -19 -11 -23 25 -59 45 -45 78 -74 85 -74 3 0 13 -8 23 -17
67 -63 108 -84 103 -51 0 4 8 5 19 3 12 -2 18 0 16 4 -6 8 29 41 43 41 5 0 24
17 42 38 17 20 28 30 24 22 -4 -8 6 0 24 18 17 18 31 39 31 45 -1 16 -36 57
-48 57 -6 0 -14 9 -17 20 -4 11 -11 18 -16 15 -5 -4 -21 6 -35 22 -14 15 -22
21 -18 13 4 -8 -4 -4 -18 10 -29 29 -70 60 -78 60 -3 0 -14 -7 -24 -15z m129
-99 l105 -84 -96 -76 c-56 -46 -100 -74 -107 -69 -7 4 -54 40 -105 81 -62 50
-90 78 -83 85 11 11 175 145 178 146 1 1 50 -37 108 -83z"/>
<path d="M3460 1688 c-130 -101 -152 -123 -155 -152 -2 -15 -1 -25 2 -22 4 3
13 -3 20 -14 8 -11 19 -17 25 -14 6 4 8 2 5 -3 -4 -6 1 -17 10 -24 14 -12 16
-12 8 1 -4 8 12 -4 36 -26 24 -23 54 -47 67 -54 30 -15 64 -21 57 -10 -3 5 3
11 13 14 26 9 83 52 76 58 -3 3 8 10 25 16 16 6 35 20 41 31 6 13 16 19 23 15
7 -4 9 -4 5 0 -4 5 2 17 12 29 20 20 17 32 -12 67 -18 21 -75 60 -87 60 -6 0
-15 8 -20 19 -8 15 -75 63 -84 60 -1 0 -31 -23 -67 -51z m152 -44 c46 -37 89
-72 96 -79 11 -10 -5 -26 -80 -87 -51 -41 -98 -77 -105 -81 -7 -4 -51 24 -107
69 l-95 76 102 83 c56 46 103 84 104 84 1 1 40 -29 85 -65z"/>
<path d="M3202 1484 c-17 -11 -26 -13 -36 -5 -9 8 -13 7 -13 -4 0 -8 5 -11 11
-8 6 3 -9 -12 -33 -33 -75 -67 -111 -104 -111 -116 0 -6 14 -24 30 -40 17 -15
30 -26 30 -23 0 4 11 -6 25 -21 13 -14 22 -31 18 -37 -4 -6 -1 -7 6 -2 8 4 30
-6 57 -25 30 -21 50 -29 64 -25 11 3 20 10 20 15 0 4 11 11 25 14 14 4 23 11
20 16 -9 14 9 12 24 -2 8 -7 11 -8 8 -2 -8 14 21 56 34 49 5 -4 9 -1 9 4 0 6
14 23 30 38 37 33 37 43 3 84 -16 18 -23 30 -16 26 6 -4 14 -3 18 2 3 6 -5 8
-18 6 -16 -3 -38 8 -77 43 -30 26 -50 40 -45 32 4 -8 -3 -5 -17 8 -29 26 -36
27 -66 6z m93 -57 c11 -9 40 -32 64 -51 24 -20 50 -40 59 -45 9 -5 15 -11 12
-13 -3 -2 -46 -36 -96 -76 -51 -40 -95 -72 -98 -72 -3 0 -40 27 -81 59 -41 33
-84 67 -97 76 -20 14 -21 17 -7 25 8 5 53 40 100 78 81 67 85 69 104 52 11 -9
29 -24 40 -33z"/>
<path d="M2739 1423 c-10 -11 -14 -47 -15 -111 -1 -86 1 -95 18 -100 15 -4 17
-7 6 -13 -7 -5 -8 -9 -3 -9 6 0 22 10 37 23 50 41 72 57 80 57 4 0 12 9 18 21
13 23 -3 79 -22 79 -5 0 -28 16 -51 35 -47 40 -50 41 -68 18z m78 -58 c29 -22
52 -42 52 -45 -1 -8 -108 -91 -122 -94 -7 -1 -9 -1 -4 1 4 3 7 45 7 95 0 49 3
88 8 86 4 -1 31 -21 59 -43z"/>
<path d="M3685 1420 c-10 -11 -20 -18 -23 -15 -6 6 -82 -72 -82 -85 0 -15 91
-100 106 -100 8 0 11 -6 8 -14 -10 -27 15 -27 33 0 23 35 27 178 7 212 -18 27
-26 28 -49 2z m35 -105 l0 -96 -27 26 c-16 14 -43 36 -60 48 -18 12 -33 24
-32 27 1 7 102 88 112 89 4 1 7 -42 7 -94z"/>
<path d="M909 2433 c-13 -16 -12 -17 4 -4 9 7 17 15 17 17 0 8 -8 3 -21 -13z"/>
<path d="M5426 1943 c-6 -14 -5 -15 5 -6 7 7 10 15 7 18 -3 3 -9 -2 -12 -12z"/>
<path d="M2294 1370 c0 -13 4 -16 10 -10 7 7 7 13 0 20 -6 6 -10 3 -10 -10z"/>
<path d="M2864 1126 c1 -8 5 -18 8 -22 4 -3 5 1 4 10 -1 8 -5 18 -8 22 -4 3
-5 -1 -4 -10z"/>
<path d="M3330 1036 c0 -2 7 -7 16 -10 8 -3 12 -2 9 4 -6 10 -25 14 -25 6z"/>
<path d="M968 993 c-8 -10 -25 -36 -38 -58 -12 -22 -72 -125 -131 -228 -60
-104 -109 -196 -109 -206 0 -32 24 -53 55 -49 28 3 42 23 172 248 78 135 143
251 143 258 0 18 -37 52 -58 52 -11 0 -26 -8 -34 -17z m51 -26 c6 -8 7 -17 3
-21 -4 -4 -8 -12 -8 -17 -1 -5 -2 -13 -3 -18 0 -5 -7 -16 -14 -23 -7 -7 -39
-60 -71 -118 -54 -96 -80 -141 -114 -195 -7 -11 -15 -28 -18 -37 -4 -10 -11
-18 -17 -18 -6 0 -7 -3 -4 -7 4 -3 0 -15 -9 -25 -13 -14 -20 -15 -31 -7 -22
19 -16 34 52 145 36 59 65 110 65 115 0 5 4 9 10 9 5 0 9 3 8 8 -3 12 54 116
68 125 8 4 14 13 14 19 0 15 40 78 50 78 4 0 13 -6 19 -13z"/>
<path d="M728 983 c-30 -35 -148 -250 -148 -271 0 -39 45 -65 77 -44 15 10
163 263 163 279 0 19 -37 53 -58 53 -11 0 -26 -8 -34 -17z m46 -65 c-13 -26
-17 -28 -32 -16 -15 11 -15 11 -4 -3 10 -13 9 -23 -3 -50 -29 -64 -74 -134
-85 -132 -5 2 -9 -2 -7 -8 1 -6 -6 -13 -15 -14 -23 -4 -23 17 -1 58 9 18 16
35 15 40 -1 4 2 7 6 7 5 0 14 16 22 35 8 19 20 35 27 35 7 0 12 3 12 8 -3 19
3 33 27 62 21 24 29 28 40 19 11 -9 11 -16 -2 -41z"/>
<path d="M893 985 c0 -8 4 -12 9 -9 5 3 6 10 3 15 -9 13 -12 11 -12 -6z"/>
<path d="M1082 782 c-31 -31 -152 -250 -152 -275 0 -32 22 -49 57 -45 24 3 37
19 96 118 99 169 103 185 51 208 -32 15 -31 15 -52 -6z m48 -45 c0 -11 -8 -29
-17 -40 -13 -15 -14 -18 -3 -12 8 5 3 -6 -12 -24 -26 -30 -32 -44 -29 -64 1
-5 -3 -6 -8 -3 -5 3 -12 -5 -15 -19 -4 -14 -11 -25 -16 -25 -6 0 -10 -6 -10
-13 0 -8 -9 -22 -20 -32 -30 -27 -47 -7 -29 34 8 17 17 31 20 31 4 0 10 7 13
16 3 9 2 12 -5 9 -5 -4 4 17 22 45 17 28 38 54 45 57 8 3 11 9 8 14 -8 13 29
57 43 52 7 -3 13 -14 13 -26z"/>
</g>
</svg>
