<?xml version="1.0" standalone="no"?>
<!DOCTYPE svg PUBLIC "-//W3C//DTD SVG 20010904//EN"
 "http://www.w3.org/TR/2001/REC-SVG-20010904/DTD/svg10.dtd">
<svg version="1.0" xmlns="http://www.w3.org/2000/svg"
 width="600.000000pt" height="751.000000pt" viewBox="0 0 600.000000 751.000000"
 preserveAspectRatio="xMidYMid meet">
<g transform="translate(0.000000,751.000000) scale(0.100000,-0.100000)"
fill="#000000" stroke="none">
<path d="M3473 6481 c-138 -47 -211 -143 -229 -299 l-6 -61 -77 38 c-225 114
-418 153 -811 166 -174 6 -189 5 -243 -15 -64 -24 -166 -101 -271 -206 -125
-125 -169 -212 -210 -416 -54 -264 -152 -565 -209 -640 -42 -54 -154 -130
-225 -152 -127 -40 -201 -97 -191 -147 2 -8 -26 -42 -62 -77 -111 -106 -167
-247 -156 -397 25 -342 337 -559 672 -466 22 6 54 19 70 29 17 10 57 29 90 41
33 12 94 44 135 70 71 46 174 91 183 81 9 -10 29 -329 21 -342 -4 -7 -8 -152
-9 -323 l-1 -310 -68 -200 c-38 -110 -86 -239 -107 -287 -71 -162 -71 -160
-79 -618 -8 -425 -15 -520 -61 -765 -11 -60 -29 -146 -40 -190 -11 -44 -24
-126 -29 -181 -5 -56 -18 -138 -30 -182 -31 -122 -28 -164 15 -211 58 -64 158
-105 290 -119 154 -17 285 18 333 88 28 42 28 64 -4 147 -74 197 -84 237 -84
356 0 72 -5 132 -15 163 -8 27 -15 67 -15 89 0 106 80 452 175 765 87 286 104
355 121 500 13 118 24 162 85 344 121 361 301 859 331 916 41 75 118 155 118
121 0 -5 27 -71 61 -148 34 -76 77 -174 96 -218 77 -175 96 -215 114 -231 13
-12 39 -16 104 -17 l86 -1 33 -40 c131 -162 264 -353 310 -444 33 -66 49 -128
81 -317 34 -203 50 -258 148 -501 142 -351 167 -438 176 -614 5 -107 4 -127
-10 -141 -28 -28 -45 -206 -29 -299 12 -74 13 -82 5 -130 -7 -43 20 -92 65
-115 17 -9 74 -27 127 -40 55 -14 113 -36 135 -51 79 -55 316 -102 449 -90
145 13 204 55 223 159 7 38 7 38 -131 180 -151 155 -231 251 -294 351 -38 60
-41 71 -42 140 -2 64 -5 78 -27 101 -14 15 -37 33 -51 40 -25 13 -26 19 -33
122 -23 387 -84 724 -191 1063 -45 140 -80 253 -106 340 -11 36 -49 180 -85
320 -55 218 -62 255 -49 263 8 4 15 18 15 30 0 36 -214 495 -284 611 l-36 59
48 51 c26 28 68 78 92 111 25 33 82 100 128 148 189 202 272 367 272 542 0
152 -62 298 -183 431 -40 44 -86 96 -101 116 -26 35 -27 38 -12 67 9 17 23 59
31 93 8 35 22 86 30 113 9 29 20 124 26 229 l10 178 -26 53 c-44 91 -117 141
-253 175 -101 26 -256 26 -329 1z m292 -26 c44 -10 86 -18 93 -18 6 0 12 -4
12 -7 0 -4 12 -10 28 -13 36 -8 127 -91 116 -108 -4 -7 -3 -10 3 -6 24 15 33
-63 24 -212 l-1 -24 -19 25 c-13 17 -31 25 -58 26 -21 1 -52 7 -69 13 -17 5
-40 12 -50 14 -10 2 -39 9 -64 16 -69 16 -133 7 -172 -26 -18 -15 -31 -30 -29
-32 8 -10 -57 -83 -91 -103 l-37 -21 -35 34 c-19 19 -38 32 -41 29 -3 -3 -5 0
-5 5 0 6 -12 10 -27 8 -29 -3 -63 -37 -63 -63 0 -12 -4 -11 -16 6 -10 15 -22
21 -32 17 -13 -5 -13 -2 2 14 11 12 16 27 12 37 -3 9 -2 22 4 29 12 14 19 42
25 95 5 50 16 93 28 108 5 6 6 12 2 12 -4 0 5 15 19 33 41 51 59 67 73 67 7 0
13 4 13 10 0 18 177 58 240 54 19 -1 71 -10 115 -19z m-1335 -195 c152 -7 384
-34 399 -46 2 -1 -6 -16 -18 -32 -12 -17 -21 -32 -21 -35 0 -3 -21 -43 -48
-89 -46 -81 -132 -251 -132 -263 0 -16 -78 -165 -104 -199 -36 -46 -110 -96
-144 -96 -13 0 -20 4 -17 10 11 18 -35 102 -88 160 -65 70 -104 159 -119 274
-14 107 -14 108 -40 104 -18 -2 -24 -11 -26 -36 -5 -49 24 -187 53 -249 l25
-56 -34 -71 c-66 -136 -233 -398 -379 -595 -80 -108 -125 -196 -142 -276 -8
-43 -37 -42 -83 1 l-37 36 -140 -6 c-77 -2 -169 -12 -204 -21 -35 -8 -66 -13
-68 -11 -9 9 44 36 127 66 46 17 104 42 129 56 68 39 149 122 181 186 39 76
111 294 149 453 17 72 42 177 56 234 38 162 96 244 279 397 143 121 137 119
446 104z m440 -25 c0 4 5 3 10 0 7 -4 2 -14 -11 -26 -24 -21 -34 -24 -24 -9 3
5 1 19 -5 31 -11 19 -10 20 9 9 12 -6 21 -8 21 -5z m155 -78 c55 -24 124 -57
153 -73 l52 -31 -54 -26 c-88 -43 -123 -98 -186 -289 -68 -207 -63 -379 14
-493 52 -78 117 -110 216 -109 92 2 169 29 240 85 45 35 123 123 132 148 2 6
28 1 61 -10 55 -18 62 -19 111 -5 61 18 102 57 145 138 l29 57 25 -32 25 -33
-58 -117 c-71 -143 -126 -226 -251 -382 -53 -66 -115 -149 -138 -184 -30 -47
-58 -75 -104 -105 -82 -54 -193 -165 -247 -248 l-44 -68 -251 -1 c-137 0 -259
-3 -270 -6 -11 -2 -130 -5 -265 -6 -175 -2 -257 2 -287 11 l-43 13 1 142 c0
78 4 175 8 216 6 64 10 76 34 93 37 27 51 56 117 248 32 91 72 204 90 251 l32
85 59 13 c119 27 188 96 260 261 44 102 144 296 216 423 28 48 51 77 61 77 10
0 62 -20 117 -43z m831 -47 c38 -11 89 -20 113 -20 l44 0 -6 -97 c-3 -54 -13
-118 -22 -142 -8 -25 -22 -73 -30 -107 -16 -69 -123 -279 -156 -306 -36 -30
-93 -41 -131 -25 -51 22 -153 121 -216 211 -62 86 -102 111 -102 64 0 -28 78
-142 149 -218 l51 -54 -28 -41 c-84 -126 -247 -206 -360 -176 -57 16 -96 52
-129 119 -24 51 -27 68 -27 162 0 70 6 127 18 170 23 84 83 238 107 271 17 24
127 90 113 68 -10 -17 -6 -108 7 -146 12 -37 61 -83 89 -83 9 0 23 7 31 16 16
20 0 49 -27 49 -21 0 -40 33 -47 83 -7 44 20 122 42 122 24 0 61 -29 71 -56
23 -59 135 4 190 108 11 20 32 41 47 47 36 13 122 6 209 -19z m-655 -7 c13
-16 12 -17 -3 -4 -10 7 -18 15 -18 17 0 8 8 3 21 -13z m-408 -28 c-3 -9 -8
-14 -10 -11 -3 3 -2 9 2 15 9 16 15 13 8 -4z m340 -110 c-3 -9 -8 -14 -10 -11
-3 3 -2 9 2 15 9 16 15 13 8 -4z m-433 -55 c-6 -11 -13 -20 -16 -20 -2 0 0 9
6 20 6 11 13 20 16 20 2 0 0 -9 -6 -20z m-498 -217 c8 -10 18 -25 22 -33 5 -9
2 -8 -7 3 -17 21 -21 21 -41 1 -15 -14 -16 -14 -16 0 0 9 7 16 16 16 14 0 14
3 4 15 -7 8 -8 15 -3 15 6 0 17 -8 25 -17z m27 -78 c17 -19 38 -49 47 -66 15
-30 15 -34 -16 -103 -41 -90 -80 -194 -141 -376 -42 -125 -55 -150 -91 -187
l-41 -42 -9 -113 c-5 -62 -8 -155 -6 -205 2 -51 2 -93 -1 -93 -2 0 -68 64
-145 143 -78 79 -149 146 -159 150 -38 14 15 140 121 286 115 158 137 190 201
291 92 145 160 262 178 307 10 23 21 43 24 43 4 0 21 -16 38 -35z m1715 -42
c-27 -20 -35 -16 -22 12 9 20 14 23 25 13 13 -10 12 -14 -3 -25z m56 -39 c0
-2 -9 0 -20 6 -11 6 -20 13 -20 16 0 2 9 0 20 -6 11 -6 20 -13 20 -16z m30
-59 c0 -7 -7 -15 -15 -19 -12 -4 -13 -2 -6 13 6 10 7 22 3 26 -4 5 -1 5 6 1 6
-4 12 -13 12 -21z m-1689 -2 c11 -13 11 -15 1 -9 -8 5 -21 1 -32 -9 -19 -17
-23 -4 -7 23 11 16 22 15 38 -5z m1227 -38 c-3 -3 -9 2 -12 12 -6 14 -5 15 5
6 7 -7 10 -15 7 -18z m506 17 c3 -5 -1 -9 -9 -9 -8 0 -12 4 -9 9 3 4 7 8 9 8
2 0 6 -4 9 -8z m-469 -32 c7 0 19 -7 26 -17 13 -15 12 -15 -8 -5 -14 8 -24 9
-28 2 -11 -18 -23 -1 -17 22 3 12 7 17 10 10 2 -6 9 -12 17 -12z m539 -129
c57 -101 79 -189 74 -296 -3 -85 -7 -98 -51 -187 -55 -111 -98 -170 -210 -293
-46 -49 -104 -118 -131 -153 -109 -143 -250 -260 -374 -311 -137 -57 -203 -66
-457 -65 -271 2 -352 10 -625 65 -171 35 -226 42 -330 43 -148 1 -192 -11
-303 -84 -104 -67 -326 -152 -315 -119 2 6 33 25 68 42 48 23 65 37 65 52 0
19 -7 20 -121 21 -140 1 -188 16 -79 25 85 7 244 55 252 76 12 31 -18 42 -82
31 -91 -15 -246 -5 -286 18 -43 25 -52 49 -14 40 52 -13 239 -8 310 9 81 18
115 38 115 65 0 24 -13 27 -160 35 -130 6 -230 23 -230 38 0 7 42 7 128 1 172
-12 234 -8 286 14 36 16 47 28 61 65 15 41 15 47 1 75 -8 16 -45 63 -82 103
-37 40 -63 74 -57 76 27 9 84 -28 119 -78 48 -66 236 -235 290 -260 72 -33
174 -42 399 -36 116 4 219 8 230 11 11 2 139 5 285 6 l265 1 35 62 c68 121
255 285 373 328 39 14 53 41 31 60 -8 6 -14 8 -14 4 0 -5 -3 -6 -6 -2 -8 8 19
45 132 187 122 153 174 233 242 368 l56 113 37 -43 c21 -24 54 -72 73 -107z
m-19 99 c10 -11 16 -20 13 -20 -3 0 -13 9 -23 20 -10 11 -16 20 -13 20 3 0 13
-9 23 -20z m-555 -14 c0 -2 -8 -10 -17 -17 -16 -13 -17 -12 -4 4 13 16 21 21
21 13z m585 -36 c10 -11 16 -20 13 -20 -3 0 -13 9 -23 20 -10 11 -16 20 -13
20 3 0 13 -9 23 -20z m-760 -130 c-3 -5 -12 -10 -18 -10 -7 0 -6 4 3 10 19 12
23 12 15 0z m-1545 -74 c0 -2 -8 -10 -17 -17 -16 -13 -17 -12 -4 4 13 16 21
21 21 13z m1990 0 c0 -2 -8 -10 -17 -17 -16 -13 -17 -12 -4 4 13 16 21 21 21
13z m-40 -60 c0 -2 -7 -7 -16 -10 -8 -3 -12 -2 -9 4 6 10 25 14 25 6z m-2370
-70 c0 -2 -8 -10 -17 -17 -16 -13 -17 -12 -4 4 13 16 21 21 21 13z m2266 -54
c-17 -16 -18 -16 -5 5 7 12 15 20 18 17 3 -2 -3 -12 -13 -22z m-45 -55 c-10
-9 -11 -8 -5 6 3 10 9 15 12 12 3 -3 0 -11 -7 -18z m-2361 3 c0 -5 -8 -10 -17
-10 -15 0 -16 2 -3 10 19 12 20 12 20 0z m-220 -84 c0 -2 -8 -10 -17 -17 -16
-13 -17 -12 -4 4 13 16 21 21 21 13z m2523 -66 c6 0 -5 -9 -26 -20 -20 -11
-39 -20 -43 -20 -3 0 7 23 23 50 28 50 28 50 31 20 2 -16 9 -30 15 -30z
m-2277 18 c5 4 1 -3 -10 -15 -10 -13 -15 -27 -10 -35 4 -7 -4 -3 -18 10 -13
12 -28 19 -32 15 -4 -4 -4 1 0 12 4 10 9 14 11 8 3 -7 11 -9 19 -6 7 3 11 10
7 17 -4 7 -1 7 9 -1 8 -7 19 -9 24 -5z m-257 -49 c-11 -9 -21 -26 -21 -36 -1
-13 -10 -18 -30 -17 -15 0 -31 4 -36 9 -4 5 -2 6 4 2 10 -6 48 36 50 57 1 6 2
14 3 18 0 4 12 2 26 -4 25 -11 25 -11 4 -29z m439 -20 c23 -22 42 -45 42 -50
0 -5 15 -26 34 -46 60 -69 106 -134 106 -154 0 -25 -35 -45 -91 -52 l-46 -6
-22 54 c-30 72 -132 225 -176 263 l-36 32 73 0 c72 0 74 -1 116 -41z m129 34
c-4 -3 -2 -11 3 -18 8 -10 -9 -13 -40 -6 -3 1 4 8 14 16 20 15 35 21 23 8z
m-366 -29 c57 -39 133 -144 215 -295 2 -4 -42 -5 -99 -2 -122 7 -171 -8 -180
-52 -9 -50 59 -93 153 -96 19 -1 46 -5 60 -10 16 -6 -4 -7 -60 -4 -47 3 -106
5 -131 5 l-46 0 -41 88 c-49 105 -60 144 -68 242 -8 107 0 122 72 136 84 17
84 17 125 -12z m327 -8 c-2 -1 -11 -8 -21 -15 -15 -12 -17 -12 -11 4 6 14 4
16 -6 10 -8 -5 -11 -4 -7 3 4 5 16 8 27 5 12 -3 19 -6 18 -7z m-580 -56 c-9
-15 -10 -37 -1 -98 16 -106 45 -191 99 -284 24 -43 44 -84 44 -92 0 -17 51
-62 81 -71 13 -4 18 -12 15 -22 -18 -45 -17 -61 7 -88 19 -23 34 -29 80 -33
l56 -4 -21 -28 c-16 -22 -18 -32 -9 -48 10 -19 8 -22 -21 -27 -50 -9 -166 13
-233 44 -156 73 -265 243 -265 416 0 114 57 253 132 320 43 39 54 44 36 15z
m3095 -5 c-3 -9 -8 -14 -10 -11 -3 3 -2 9 2 15 9 16 15 13 8 -4z m-703 -8 c0
-2 -10 -12 -22 -23 l-23 -19 19 23 c18 21 26 27 26 19z m-1466 -196 c10 -11
28 -18 42 -16 18 2 28 -6 43 -31 l19 -32 -34 20 c-19 11 -34 24 -34 29 0 5 -3
8 -8 7 -4 -2 -20 7 -36 20 -16 12 -24 22 -19 22 5 0 18 -9 27 -19z m-419 -30
c-3 -5 -1 -12 5 -16 19 -12 10 -22 -15 -17 -25 4 -25 5 -9 23 18 20 29 25 19
10z m-269 -51 c0 -12 -4 -16 -9 -11 -5 5 -6 14 -3 20 10 15 12 14 12 -9z
m2582 -44 c-13 -19 -24 -33 -26 -31 -5 4 37 65 44 65 2 0 -6 -15 -18 -34z
m-2248 -38 c19 0 27 -3 18 -5 -10 -2 -18 -8 -18 -12 0 -8 -103 -32 -147 -35
-20 -1 -21 0 -7 15 14 15 13 18 -4 30 -17 12 -10 14 52 11 39 -2 87 -3 106 -4z
m2203 -13 c-3 -9 -8 -14 -10 -11 -3 3 -2 9 2 15 9 16 15 13 8 -4z m-2596 -36
c8 -3 8 -7 -2 -16 -10 -9 -15 -6 -24 14 -10 22 -10 24 1 16 7 -6 18 -12 25
-14z m2537 -63 c8 -14 17 -31 18 -38 2 -7 6 -15 10 -18 7 -6 133 -256 163
-325 10 -22 26 -59 37 -82 11 -23 19 -45 18 -49 -1 -4 3 -10 8 -13 5 -3 19
-32 31 -64 20 -56 21 -60 4 -87 -12 -21 -20 -26 -29 -19 -8 7 -17 5 -27 -5 -8
-8 -17 -12 -21 -9 -3 4 -6 0 -6 -7 0 -7 -3 -10 -6 -7 -7 7 -107 -43 -112 -56
-2 -4 -7 -5 -11 -2 -4 2 -38 -13 -75 -35 -36 -21 -64 -35 -61 -30 4 6 1 10 -4
10 -6 0 -11 -4 -11 -10 0 -5 -4 -10 -9 -10 -5 0 -26 -8 -47 -17 -22 -9 -42
-16 -46 -15 -5 1 -8 -3 -8 -10 0 -6 -3 -9 -6 -5 -4 3 -19 0 -35 -8 -15 -8 -37
-15 -49 -15 -29 0 -64 -35 -56 -55 4 -11 -4 -8 -25 9 -27 23 -39 26 -113 26
-66 0 -86 4 -99 18 -8 9 -15 19 -14 22 1 3 -10 30 -24 60 -15 30 -44 96 -64
145 -21 50 -52 122 -70 160 -18 39 -45 98 -60 133 -16 34 -34 62 -42 62 -8 0
-12 4 -9 9 4 5 -3 7 -14 4 -11 -3 -20 -9 -20 -14 0 -5 -6 -9 -12 -9 -7 0 -26
-16 -41 -36 -35 -43 -107 -195 -100 -209 3 -5 -8 5 -24 23 -16 17 -34 32 -40
32 -7 0 -16 7 -21 16 -5 9 -12 15 -15 15 -4 -1 -30 10 -57 24 -28 14 -50 22
-50 19 0 -4 -8 0 -17 8 -34 29 -152 51 -291 53 -101 3 -136 0 -146 -10 -7 -8
-16 -11 -20 -8 -3 4 -7 0 -7 -8 -3 -30 -18 92 -24 196 -4 78 -11 115 -22 127
-14 16 -13 18 11 24 37 9 102 7 166 -5 30 -6 73 -13 96 -15 22 -3 53 -10 68
-16 15 -6 52 -12 80 -14 29 -1 58 -6 65 -10 7 -4 19 -5 27 -2 10 4 12 2 8 -6
-5 -8 0 -9 16 -5 13 3 29 2 35 -3 52 -44 812 -46 844 -2 6 7 28 14 49 15 6 0
12 4 12 9 0 4 7 8 16 8 28 0 87 32 164 89 41 31 77 59 78 63 6 14 20 8 36 -16z
m-2377 -55 c4 1 40 1 78 0 69 -1 70 -1 41 -16 -32 -17 -68 -25 -131 -28 -49
-3 -68 -14 -60 -36 4 -11 3 -13 -5 -5 -8 8 -8 19 0 39 7 18 7 31 0 40 -15 18
-2 24 35 14 18 -5 37 -9 42 -8z m101 -136 c-5 9 26 12 52 5 8 -1 -64 -33 -72
-32 -5 1 -8 -2 -8 -7 0 -5 -7 -12 -16 -15 -14 -5 -15 -4 -4 9 7 8 10 21 7 29
-7 19 14 27 32 12 9 -6 12 -7 9 -1z m273 -8 c-10 -9 -11 -8 -5 6 3 10 9 15 12
12 3 -3 0 -11 -7 -18z m-275 -107 c17 0 23 4 18 13 -5 8 -2 8 9 -2 22 -17 22
-16 -15 -19 -18 -2 -34 -7 -36 -12 -2 -6 -10 -10 -17 -10 -8 0 -13 15 -13 43
l-1 42 15 -27 c10 -19 23 -28 40 -28z m919 -154 c66 -18 285 -122 285 -135 0
-5 -12 -40 -26 -77 -15 -38 -41 -112 -59 -164 -18 -52 -54 -153 -79 -225 -157
-440 -188 -547 -201 -690 -10 -109 -30 -189 -111 -459 -103 -342 -176 -646
-176 -734 l0 -33 -34 26 c-37 28 -81 40 -116 32 -13 -4 -57 -38 -98 -76 -41
-38 -75 -69 -76 -68 -1 1 6 43 16 92 41 200 52 352 60 765 8 439 9 449 73 590
30 68 140 373 163 455 14 50 17 112 19 360 1 165 5 312 9 327 5 16 16 29 29
31 50 10 265 -2 322 -17z m1645 -398 c51 -212 115 -442 165 -598 26 -80 53
-165 60 -190 62 -213 77 -270 99 -375 28 -138 49 -284 71 -505 8 -85 17 -174
20 -197 l6 -43 -44 0 c-105 0 -166 -39 -186 -120 -16 -61 -32 -100 -41 -100
-4 0 -10 53 -13 117 -4 65 -13 141 -20 168 -36 127 -74 237 -120 350 -140 343
-146 359 -187 603 -17 101 -40 209 -51 240 -34 99 -107 209 -341 516 l-17 23
99 33 c54 18 179 73 277 121 98 48 181 88 184 88 4 1 21 -59 39 -131z m-1903
-1700 c-3 -8 -6 -5 -6 6 -1 11 2 17 5 13 3 -3 4 -12 1 -19z m2360 -244 c-3 -4
-14 -3 -24 0 -15 6 -15 8 -3 16 16 10 39 -4 27 -16z m-4 -35 c52 -14 71 -47
63 -109 -5 -40 -2 -58 15 -92 59 -116 177 -264 343 -431 68 -67 106 -113 102
-122 -13 -35 -137 -75 -232 -75 -109 0 -210 40 -284 112 -40 38 -59 48 -145
72 -144 41 -202 71 -211 110 -9 36 -8 248 1 277 4 11 24 28 45 39 47 24 74 61
89 120 16 62 30 86 55 98 28 14 111 15 159 1z m-2517 -177 c58 -53 67 -83 75
-247 8 -158 17 -205 67 -322 l30 -73 -56 -1 c-53 0 -86 -5 -274 -40 -54 -9
-82 -9 -143 1 l-75 13 0 34 c0 19 9 70 20 112 11 43 24 127 30 187 13 146 23
178 72 222 22 20 68 62 102 93 85 78 90 79 152 21z m76 8 c-4 -43 -15 -51 -31
-22 -7 13 -4 23 11 40 12 12 22 22 23 22 0 0 -1 -18 -3 -40z m-47 12 c-3 -3
-11 0 -18 7 -9 10 -8 11 6 5 10 -3 15 -9 12 -12z m2195 -17 c-18 -19 -37 -32
-42 -29 -4 3 -8 1 -8 -4 0 -6 -7 -12 -14 -15 -10 -4 -13 -1 -10 8 3 7 12 16
21 19 8 4 13 13 9 21 -6 17 5 20 20 5 7 -7 16 -4 29 10 10 11 21 20 24 20 2 0
-10 -16 -29 -35z m-2504 -60 c9 -8 12 -20 8 -27 -26 -42 -63 -66 -49 -30 4 9
8 26 10 37 4 33 5 35 11 35 3 0 12 -7 20 -15z m3015 -122 c13 -16 12 -17 -3
-4 -10 7 -18 15 -18 17 0 8 8 3 21 -13z m-561 -233 c7 0 3 -9 -10 -20 -13 -11
-24 -20 -25 -20 -1 0 -2 16 -1 35 1 28 3 32 12 20 6 -8 17 -15 24 -15z m790
-15 c7 -9 8 -15 2 -15 -5 0 -12 7 -16 15 -3 8 -4 15 -2 15 2 0 9 -7 16 -15z
m-740 -51 c25 -11 83 -31 130 -44 64 -18 95 -33 125 -61 56 -50 85 -65 96 -48
5 8 9 9 9 3 0 -6 11 -10 25 -9 14 2 23 -1 20 -5 -5 -8 8 -14 57 -27 13 -3 62
-7 110 -8 66 -2 104 2 158 19 39 12 69 25 66 29 -3 4 -3 5 1 2 4 -3 20 7 36
22 25 23 29 24 22 8 -4 -11 -8 -25 -8 -32 0 -7 -4 -10 -8 -7 -4 2 -10 0 -14
-6 -3 -5 0 -10 7 -10 7 0 4 -6 -7 -12 -11 -6 -22 -14 -25 -18 -3 -3 -31 -14
-62 -22 -57 -16 -242 -19 -265 -5 -6 4 -34 9 -64 12 -53 5 -87 23 -61 32 19 7
14 22 -5 17 -10 -3 -34 5 -53 16 -68 40 -136 67 -210 85 -83 20 -109 31 -127
54 -14 18 -17 45 -5 39 4 -2 27 -13 52 -24z m-45 -54 c10 -11 16 -20 13 -20
-3 0 -13 9 -23 20 -10 11 -16 20 -13 20 3 0 13 -9 23 -20z m320 -20 c3 -6 -1
-7 -9 -4 -18 7 -21 14 -7 14 6 0 13 -4 16 -10z m-2290 -118 c1 -12 -4 -22 -11
-22 -18 0 -25 15 -18 35 9 22 27 14 29 -13z m-520 -42 c7 -6 25 -9 39 -6 28 5
33 -3 14 -22 -9 -9 -8 -15 8 -26 17 -13 14 -14 -23 -4 -24 6 -43 14 -43 19 0
5 -6 9 -13 9 -8 0 -24 11 -37 25 l-23 24 32 -4 c18 -2 38 -9 46 -15z m486 -9
c-29 -53 -179 -79 -315 -56 -50 9 -94 19 -98 23 -4 4 16 8 45 9 29 1 81 9 117
17 90 21 105 23 188 25 68 1 72 0 63 -18z"/>
<path d="M2089 5703 c-13 -16 -12 -17 4 -4 9 7 17 15 17 17 0 8 -8 3 -21 -13z"/>
<path d="M1650 5371 c0 -6 4 -13 10 -16 6 -3 7 1 4 9 -7 18 -14 21 -14 7z"/>
<path d="M2845 6000 c-3 -6 1 -7 9 -4 18 7 21 14 7 14 -6 0 -13 -4 -16 -10z"/>
<path d="M2109 4828 c-5 -18 -6 -38 -1 -34 7 8 12 36 6 36 -2 0 -4 -1 -5 -2z"/>
<path d="M3449 4763 c-13 -16 -12 -17 4 -4 9 7 17 15 17 17 0 8 -8 3 -21 -13z"/>
<path d="M3655 6101 c-3 -5 -2 -12 3 -15 5 -3 9 1 9 9 0 17 -3 19 -12 6z"/>
<path d="M2496 3273 c-6 -14 -5 -15 5 -6 7 7 10 15 7 18 -3 3 -9 -2 -12 -12z"/>
<path d="M2485 3241 c-3 -5 -2 -12 3 -15 5 -3 9 1 9 9 0 17 -3 19 -12 6z"/>
<path d="M4536 618 c3 -5 10 -6 15 -3 13 9 11 12 -6 12 -8 0 -12 -4 -9 -9z"/>
<path d="M1370 5106 c0 -2 8 -10 18 -17 15 -13 16 -12 3 4 -13 16 -21 21 -21
13z"/>
<path d="M2996 3387 c3 -10 9 -15 12 -12 3 3 0 11 -7 18 -10 9 -11 8 -5 -6z"/>
<path d="M3286 3122 c-3 -5 1 -9 9 -9 8 0 12 4 9 9 -3 4 -7 8 -9 8 -2 0 -6 -4
-9 -8z"/>
<path d="M4850 856 c0 -2 8 -10 18 -17 15 -13 16 -12 3 4 -13 16 -21 21 -21
13z"/>
</g>
</svg>
