<?xml version="1.0" encoding="utf-8"?>

<!DOCTYPE svg PUBLIC "-//W3C//DTD SVG 1.1//EN" "http://www.w3.org/Graphics/SVG/1.1/DTD/svg11.dtd">
<!-- Uploaded to: SVG Repo, www.svgrepo.com, Generator: SVG Repo Mixer Tools -->
<svg height="800px" width="800px" version="1.1" id="_x32_" xmlns="http://www.w3.org/2000/svg" xmlns:xlink="http://www.w3.org/1999/xlink" 
	 viewBox="0 0 512 512"  xml:space="preserve">
<style type="text/css">
	.st0{fill:#000000;}
</style>
<g>
	<path class="st0" d="M413.373,0h-68.054v55.291c0,49.327-39.991,89.318-89.318,89.318s-89.319-39.991-89.319-89.318V0H98.627
		c0,0,11.477,144.291-72.304,199.909V512h459.354V199.909C401.895,144.291,413.373,0,413.373,0z M241.714,324.6
		c0,5.164-1.996,7.336-6.727,10.055l-55.527,32.591c-2.491,1.627-3.486,3.527-3.486,6.518v10.6c0,3.527,1.745,5.427,4.982,5.427
		h26.891v-11.127c0-3.536,1.746-5.436,4.982-5.436h23.904c3.236,0,4.982,1.9,4.982,5.436v41.545c0,3.536-1.746,5.436-4.982,5.436
		h-89.641c-3.236,0-4.981-1.9-4.981-5.436v-67.091c0-5.154,1.745-7.327,6.472-10.046l59.264-34.764v-30.881
		c0-7.055-3.732-10.855-9.959-10.855h-11.95c-6.727,0-9.964,3.8-9.964,10.855V289.3c0,2.718-1.491,4.346-3.982,4.346h-25.896
		c-2.74,0-3.986-1.627-3.986-4.346v-19.472c0-25.527,12.45-39.109,35.859-39.109h27.886c23.159,0,35.859,13.582,35.859,39.109V324.6
		z M366.477,310.482c0,10.045-6.722,17.654-15.686,19.282v0.546c8.964,1.627,15.686,9.236,15.686,19.282v36.946
		c0,25.526-12.7,39.108-36.104,39.108h-28.886c-22.659,0-34.859-13.309-34.859-38.018v-8.963c0-3.536,1.746-5.436,4.982-5.436
		h23.904c3.236,0,4.977,1.9,4.977,5.436v11.127h27.891c3.236,0,4.977-1.9,4.977-5.427v-25.537c0-7.064-3.236-10.864-9.959-10.864
		h-29.382c-3.236,0-4.982-1.9-4.982-5.436v-24.982c0-3.536,1.745-5.436,4.982-5.436H323.4c6.477,0,9.959-3.8,9.959-10.591V272
		c0-3.528-1.741-5.428-4.977-5.428h-27.891V277.7c0,3.536-1.741,5.436-4.977,5.436h-23.904c-3.236,0-4.982-1.9-4.982-5.436v-11.128
		c0-23.363,12.2-35.854,34.859-35.854h28.886c23.404,0,36.104,13.582,36.104,39.109V310.482z"/>
</g>
</svg>