<?xml version="1.0" standalone="no"?>
<!DOCTYPE svg PUBLIC "-//W3C//DTD SVG 20010904//EN"
 "http://www.w3.org/TR/2001/REC-SVG-20010904/DTD/svg10.dtd">
<svg version="1.0" xmlns="http://www.w3.org/2000/svg"
 width="600.000000pt" height="685.000000pt" viewBox="0 0 600.000000 685.000000"
 preserveAspectRatio="xMidYMid meet">
<g transform="translate(0.000000,685.000000) scale(0.100000,-0.100000)"
fill="#000000" stroke="none">
<path d="M2355 5755 l-25 -24 0 -419 c0 -398 1 -421 19 -443 19 -23 25 -24
202 -29 l183 -5 16 -63 c20 -83 42 -102 121 -102 l59 0 0 -130 0 -130 -700 0
-700 0 -29 -27 c-23 -23 -39 -61 -81 -198 -28 -93 -64 -210 -80 -260 -65 -213
-411 -1330 -635 -2050 -47 -154 -134 -433 -191 -620 -58 -187 -118 -382 -135
-433 -28 -89 -29 -99 -29 -287 0 -191 0 -194 24 -222 l24 -28 2596 -3 c2833
-2 2654 -6 2676 53 6 15 10 107 10 206 l0 180 -69 222 c-38 122 -124 400 -191
617 -67 217 -164 530 -215 695 -51 165 -198 638 -325 1050 -343 1112 -327
1061 -357 1084 -25 21 -35 21 -724 21 l-699 0 0 130 0 130 60 0 c79 0 104 22
121 109 l12 61 179 0 c177 0 179 0 203 25 l25 24 0 421 0 421 -25 24 -24 25
-636 0 -636 0 -24 -25z m1293 -4 c7 -1 11 -5 7 -10 -3 -5 -1 -12 5 -16 13 -8
14 -814 0 -835 -7 -12 -44 -16 -191 -20 l-182 -5 -18 -35 c-11 -19 -19 -43
-19 -53 0 -22 -18 -59 -34 -69 -6 -4 -32 -8 -58 -8 -82 0 -89 -13 -87 -163 1
-116 3 -130 22 -148 20 -18 41 -19 709 -19 548 0 688 3 682 13 -4 6 5 1 20
-13 14 -14 28 -35 30 -45 2 -11 13 -45 25 -75 11 -30 22 -64 24 -75 1 -11 6
-25 10 -32 4 -6 9 -24 11 -40 3 -25 45 -162 66 -218 5 -11 18 -54 30 -95 12
-41 29 -95 37 -120 8 -25 16 -52 17 -60 1 -8 5 -22 8 -30 7 -16 40 -119 44
-135 9 -33 17 -72 18 -88 2 -10 8 -22 16 -27 7 -4 14 -16 15 -27 1 -10 10 -45
20 -78 10 -33 19 -62 20 -65 0 -3 7 -16 14 -29 11 -20 11 -22 -1 -15 -10 6
-11 5 -2 -7 6 -8 15 -25 18 -39 10 -36 70 -228 107 -340 17 -52 32 -102 33
-110 2 -8 6 -22 9 -30 3 -8 22 -73 42 -145 21 -71 43 -141 50 -155 7 -14 15
-42 19 -64 4 -21 12 -50 18 -65 6 -14 12 -28 13 -31 1 -3 4 -12 8 -20 3 -8 15
-49 27 -90 12 -41 28 -92 35 -113 8 -20 13 -37 10 -37 -2 0 2 -15 9 -32 7 -18
11 -39 8 -47 -3 -9 0 -11 8 -6 8 5 11 4 7 -2 -4 -6 6 -48 22 -94 16 -46 32
-96 35 -111 3 -15 11 -40 18 -55 6 -15 12 -32 13 -38 6 -24 48 -166 69 -230
31 -93 81 -249 82 -255 0 -3 9 -32 19 -65 10 -33 20 -64 21 -70 1 -5 9 -30 17
-55 7 -25 13 -55 12 -67 -1 -12 2 -20 6 -17 4 2 8 -78 9 -179 0 -145 -2 -186
-14 -202 -14 -20 -36 -20 -2612 -25 -1770 -3 -2604 -2 -2618 5 -20 10 -21 19
-21 200 0 208 4 251 29 309 9 21 13 42 10 48 -3 5 -1 14 4 21 6 7 22 52 37
102 15 49 31 96 35 105 7 14 31 92 51 165 9 34 40 134 66 215 10 30 18 60 19
65 0 6 11 44 24 85 14 41 24 81 23 87 0 7 3 10 8 7 5 -3 10 4 10 15 1 12 2 24
3 29 6 21 51 166 72 232 14 41 41 127 60 190 44 148 93 306 109 350 26 74 69
230 67 243 -1 4 3 7 8 7 5 0 9 3 8 8 -1 4 9 41 22 82 13 41 25 82 26 90 1 8
13 49 27 90 21 62 76 236 83 263 1 4 3 9 4 12 1 3 3 8 4 13 1 4 7 25 14 47 7
22 18 58 24 80 6 22 26 85 44 140 18 55 51 161 74 235 23 74 60 191 81 259 22
68 41 131 42 140 1 9 6 22 10 29 5 6 5 17 2 22 -3 6 -1 10 4 10 6 0 11 6 11
14 0 36 14 37 729 39 683 2 700 2 714 22 23 31 23 236 0 275 -16 27 -22 30
-70 30 -54 0 -93 22 -93 53 0 6 -5 29 -10 49 -19 67 -22 68 -209 68 -118 0
-172 4 -184 13 -15 11 -17 50 -18 425 -1 313 2 416 11 427 11 13 98 15 624 17
336 2 618 2 626 1 8 -1 21 -2 28 -2z"/>
<path d="M2488 5628 c-13 -11 -17 -43 -21 -163 -7 -219 3 -453 20 -471 20 -20
196 -20 212 0 7 8 10 34 7 66 -4 41 -1 55 15 71 18 18 35 19 297 19 252 0 305
-4 303 -24 -1 -3 0 -9 0 -13 5 -28 3 -70 -3 -67 -12 7 -10 -24 2 -47 10 -17
22 -19 115 -19 90 0 106 2 114 18 13 25 14 612 0 612 -5 0 -8 4 -5 9 3 5 -1
12 -10 15 -9 3 -244 6 -523 6 -391 0 -511 -3 -523 -12z m1042 -318 l0 -300
-96 0 c-95 0 -96 0 -90 23 21 70 19 85 -12 117 l-30 30 -290 0 -290 0 -27 -32
c-22 -26 -26 -38 -21 -69 3 -21 9 -44 12 -53 5 -14 -6 -16 -90 -16 l-96 0 0
300 0 300 515 0 515 0 0 -300z"/>
<path d="M2850 5015 c-14 -38 21 -168 54 -200 6 -6 55 -12 108 -14 86 -2 99 0
117 18 42 42 69 202 35 215 -9 3 -81 6 -160 6 l-144 0 -10 -25z m310 -12 c0
-5 -4 -24 -9 -43 -6 -19 -15 -54 -21 -78 l-11 -43 -106 3 -107 3 -18 70 c-9
39 -18 76 -18 83 0 9 36 12 145 12 80 0 145 -3 145 -7z"/>
<path d="M1606 4256 c-19 -14 -49 -84 -41 -96 4 -6 1 -10 -5 -10 -6 0 -8 -4
-5 -10 3 -5 -1 -23 -10 -40 -9 -18 -17 -41 -19 -53 -1 -12 -5 -29 -9 -37 -8
-21 -29 -89 -31 -103 -1 -7 -7 -22 -14 -33 -6 -12 -9 -24 -6 -27 3 -3 -1 -20
-10 -39 -12 -27 -28 -78 -42 -133 -1 -5 -21 -66 -43 -135 -23 -69 -41 -132
-41 -142 0 -9 -5 -20 -11 -23 -6 -4 -8 -13 -5 -21 3 -8 1 -14 -4 -14 -6 0 -10
-11 -10 -25 0 -15 -6 -38 -14 -53 -7 -15 -21 -58 -31 -97 -9 -38 -23 -83 -30
-100 -7 -16 -21 -59 -30 -95 -16 -63 -28 -97 -46 -132 -5 -10 -11 -33 -13 -50
-3 -18 -9 -46 -15 -61 -7 -19 -8 -34 -1 -47 9 -16 34 -18 307 -25 164 -4 455
-5 647 -1 303 5 352 8 368 22 9 9 15 20 13 24 -3 4 13 34 34 66 39 58 109 120
164 145 15 7 27 16 27 21 0 5 5 6 10 3 6 -3 10 -2 10 2 0 5 10 9 22 10 11 1
24 7 28 14 4 6 12 9 18 5 5 -3 24 1 41 10 49 24 401 25 401 1 0 -5 5 -5 11 -2
5 4 24 0 42 -8 18 -9 39 -17 47 -19 8 -2 18 -7 21 -11 3 -5 13 -9 21 -11 24
-3 49 -27 41 -39 -3 -6 -1 -7 5 -3 6 4 21 1 33 -6 25 -15 83 -68 74 -68 -3 0
4 -10 16 -22 12 -13 29 -41 39 -63 32 -75 -17 -70 685 -70 681 0 665 -1 665
52 0 13 -17 77 -38 141 -55 169 -85 264 -89 285 -2 11 -19 69 -39 130 -20 62
-47 148 -61 192 -14 44 -32 100 -41 125 -9 25 -15 48 -14 52 1 4 -5 22 -12 40
-8 18 -14 36 -15 41 0 4 -12 44 -26 90 -24 73 -31 98 -38 132 -2 6 -7 24 -14
40 -6 17 -16 50 -24 75 -7 25 -15 50 -18 55 -8 14 -12 37 -12 58 0 10 -5 15
-11 11 -7 -4 -8 -2 -4 4 7 12 -19 78 -35 87 -10 7 -62 -6 -55 -13 3 -3 2 -10
-4 -16 -5 -7 -10 -33 -12 -58 -2 -25 -7 -44 -12 -41 -5 3 -7 0 -4 -8 8 -24
-48 -186 -82 -239 -9 -14 -20 -33 -23 -42 -4 -10 -11 -18 -17 -18 -6 0 -9 -4
-6 -9 3 -5 -1 -11 -9 -15 -8 -3 -15 -12 -15 -21 0 -8 -5 -15 -12 -15 -6 0 -9
-3 -5 -6 7 -7 -10 -28 -88 -108 -73 -75 -129 -119 -140 -108 -5 4 -5 2 -2 -4
5 -9 -138 -113 -160 -116 -4 0 -25 -12 -45 -24 -21 -13 -40 -24 -43 -24 -3 0
-24 -9 -48 -19 -56 -25 -78 -33 -102 -38 -11 -2 -24 -8 -29 -13 -6 -6 -20 -10
-33 -10 -13 0 -31 -4 -41 -9 -15 -8 -69 -18 -242 -47 -46 -7 -270 -8 -340 0
-78 8 -287 52 -335 70 -72 28 -98 36 -115 36 -11 0 -20 4 -20 9 0 10 -35 25
-69 30 -5 0 -16 7 -24 15 -7 8 -38 27 -68 42 -30 16 -63 36 -73 46 -11 10 -26
18 -33 18 -8 0 -11 5 -8 10 3 6 1 10 -5 10 -6 0 -28 16 -48 35 -20 19 -43 35
-51 35 -8 0 -12 3 -9 6 4 3 -17 29 -45 58 -61 61 -113 128 -109 139 1 5 -2 6
-7 3 -5 -3 -12 5 -15 18 -3 14 -12 31 -19 38 -12 13 -51 86 -53 97 0 3 -7 22
-16 43 -13 30 -41 135 -52 199 -9 55 -39 79 -70 55z m44 -49 c0 -60 39 -188
88 -291 162 -336 506 -583 944 -677 185 -40 499 -37 698 7 516 115 926 495
992 921 9 55 15 73 26 71 10 -2 41 -87 92 -253 272 -881 392 -1270 397 -1281
4 -12 -102 -14 -638 -14 l-644 0 -19 46 c-45 109 -180 213 -341 264 -145 46
-382 36 -526 -21 -56 -22 -149 -78 -184 -112 -42 -40 -93 -116 -100 -147 l-7
-30 -644 0 c-354 0 -644 3 -644 6 0 3 20 70 44 147 152 485 426 1375 426 1385
0 7 9 12 20 12 16 0 20 -7 20 -33z"/>
<path d="M4179 3673 c-13 -16 -12 -17 4 -4 16 13 21 21 13 21 -2 0 -10 -8 -17
-17z"/>
<path d="M4129 3603 c-12 -16 -12 -17 2 -6 9 7 20 9 24 5 5 -4 5 -1 1 6 -9 16
-11 15 -27 -5z"/>
<path d="M1808 4253 c-17 -20 -22 -106 -5 -96 5 3 8 0 5 -8 -2 -7 6 -43 19
-79 12 -36 23 -75 23 -88 0 -12 6 -25 14 -28 7 -3 22 -21 32 -40 10 -19 23
-34 28 -34 5 0 6 -3 3 -6 -4 -4 8 -25 25 -48 46 -59 200 -206 215 -206 7 0 13
-3 13 -8 0 -17 232 -150 253 -144 4 1 7 -3 7 -9 0 -5 4 -8 8 -5 5 3 21 -2 36
-9 16 -8 32 -13 36 -10 4 3 11 -2 14 -11 3 -8 14 -14 23 -13 10 1 31 -3 46
-10 16 -6 32 -9 37 -6 5 3 11 1 15 -4 3 -6 12 -8 20 -5 7 3 22 1 33 -5 11 -6
42 -14 69 -17 26 -3 62 -8 78 -10 64 -9 333 -3 355 7 3 1 12 3 20 3 87 8 198
33 258 58 15 6 29 12 32 12 3 1 24 8 45 18 22 9 55 22 72 28 18 7 30 16 27 21
-3 5 1 6 9 3 8 -3 22 2 30 11 9 8 20 14 24 13 14 -4 93 54 87 63 -3 5 -2 8 3
7 14 -4 54 13 49 21 -3 4 9 13 25 20 16 7 27 17 23 22 -3 5 1 9 7 9 13 0 139
128 139 141 0 4 11 21 25 37 14 16 39 56 56 88 16 32 34 63 38 69 13 16 50
146 55 193 7 72 6 72 -326 71 -337 -1 -327 2 -342 -99 -3 -19 -42 -110 -56
-130 -6 -8 -18 -28 -28 -44 -25 -43 -100 -117 -157 -156 -27 -19 -51 -33 -53
-32 -1 1 -16 -5 -34 -14 -17 -9 -46 -18 -64 -19 -19 -2 -39 -7 -45 -11 -17
-10 -219 -12 -219 -2 0 5 -8 8 -17 6 -25 -4 -185 61 -203 83 -3 3 -27 22 -53
42 -27 21 -46 37 -42 37 3 0 -10 16 -29 36 -20 20 -33 41 -30 45 3 5 1 9 -4 9
-16 0 -84 164 -76 185 3 7 -3 22 -14 33 -11 11 -18 23 -15 26 3 3 -132 5 -299
6 -280 0 -306 -1 -320 -17z m627 -81 c47 -194 207 -362 402 -422 341 -106 688
103 767 463 l6 27 301 0 300 0 -7 -47 c-9 -62 -48 -174 -86 -243 -141 -260
-439 -462 -798 -542 -91 -20 -132 -23 -305 -23 -173 0 -214 3 -304 23 -375 84
-668 285 -805 552 -47 91 -58 121 -80 218 l-14 62 303 0 303 0 17 -68z"/>
<path d="M2305 3641 c-3 -5 -2 -12 3 -15 5 -3 9 1 9 9 0 17 -3 19 -12 6z"/>
<path d="M2585 4250 c-4 -11 -10 -18 -15 -15 -5 3 -4 -9 1 -27 6 -18 15 -48
20 -65 6 -18 14 -33 20 -33 6 0 8 -4 5 -8 -3 -5 4 -18 14 -30 11 -12 20 -26
20 -31 0 -5 11 -18 25 -29 13 -11 21 -22 18 -26 -5 -5 3 -7 23 -5 3 0 14 -11
24 -23 23 -30 108 -71 179 -88 61 -14 181 -9 226 10 17 8 32 14 35 15 34 12
66 29 77 43 10 11 12 12 7 2 -6 -13 10 0 74 58 7 6 11 12 7 12 -3 0 10 14 30
31 19 17 35 40 35 51 0 10 5 16 10 13 6 -4 9 -3 8 2 -2 4 6 34 16 65 19 55 19
58 2 77 -17 18 -35 19 -436 20 -414 2 -418 2 -425 -19z m831 -74 c-38 -105
-110 -185 -214 -236 -124 -62 -252 -62 -380 1 -102 50 -195 163 -227 277 l-6
22 425 0 426 0 -24 -64z"/>
<path d="M2703 4105 c0 -8 4 -12 9 -9 5 3 6 10 3 15 -9 13 -12 11 -12 -6z"/>
<path d="M2776 4022 c-3 -5 1 -9 9 -9 8 0 12 4 9 9 -3 4 -7 8 -9 8 -2 0 -6 -4
-9 -8z"/>
<path d="M2860 2875 c-99 -24 -182 -70 -238 -129 -65 -71 -71 -95 -49 -218 4
-22 72 -98 87 -98 6 0 8 -4 5 -10 -3 -5 1 -10 9 -10 8 0 22 -7 30 -16 9 -8 21
-12 27 -8 8 4 9 3 5 -4 -7 -11 99 -49 159 -57 66 -9 195 -13 191 -6 -3 4 9 6
25 5 38 -3 156 33 191 58 16 11 33 16 39 12 8 -4 9 -3 5 4 -4 7 -3 12 2 12 13
0 77 61 74 71 -1 5 2 9 7 9 15 0 41 78 41 123 0 52 -38 118 -96 166 -45 38
-153 87 -210 97 -84 13 -249 13 -304 -1z m358 -45 c125 -44 210 -123 219 -204
8 -64 -2 -91 -49 -143 -79 -85 -212 -133 -374 -133 -215 0 -386 89 -424 220
-32 113 98 237 295 280 72 16 263 4 333 -20z"/>
<path d="M1067 2532 c-9 -10 -18 -27 -20 -38 -2 -10 -7 -26 -10 -34 -11 -29
-72 -225 -73 -235 0 -5 -3 -17 -7 -25 -3 -8 -12 -37 -20 -65 -8 -27 -39 -124
-68 -215 -30 -91 -54 -169 -54 -175 -1 -5 -18 -64 -39 -130 -39 -125 -130
-415 -148 -473 -5 -18 -11 -41 -13 -50 -2 -9 -4 -17 -5 -17 -1 0 -3 -7 -5 -15
-2 -8 -17 -57 -34 -108 -17 -51 -34 -108 -37 -126 -4 -29 -1 -35 23 -44 15 -7
72 -13 125 -14 120 -2 131 6 146 95 5 34 12 72 15 84 8 30 79 175 94 191 7 7
13 17 13 21 0 5 12 20 26 34 15 15 23 31 18 38 -4 8 -3 9 4 5 7 -4 12 -1 12 6
0 7 9 19 21 26 12 7 19 16 16 19 -7 6 131 132 161 146 12 5 22 15 22 20 0 5
-8 3 -17 -4 -16 -13 -17 -12 -4 3 7 10 17 16 21 13 5 -3 15 2 23 10 9 8 20 15
26 15 6 0 10 5 8 12 -1 7 4 13 11 14 6 1 14 3 17 4 3 1 8 3 13 4 4 0 14 7 22
13 57 48 83 66 76 53 -4 -9 -2 -8 7 2 8 10 17 15 20 11 4 -3 7 -1 7 5 0 7 5
12 12 12 6 0 20 8 31 18 15 12 18 13 12 2 -6 -11 -3 -10 12 3 11 9 23 14 28
10 4 -5 5 -2 1 5 -5 8 -1 12 11 12 10 0 28 7 39 15 12 8 24 11 28 8 3 -3 6 -1
6 5 0 6 15 14 33 17 17 4 38 12 45 17 13 12 262 97 302 104 14 2 36 9 50 14
14 4 55 14 93 21 37 7 67 15 67 18 0 3 12 7 28 7 15 1 36 4 47 7 11 3 24 6 28
6 5 1 6 5 3 10 -4 5 0 11 6 13 10 4 14 51 16 183 2 120 7 181 15 189 7 6 41
11 77 10 103 -1 117 19 64 93 -16 23 -41 64 -56 92 l-28 51 -673 0 c-637 0
-675 -1 -690 -18z m1382 -68 c13 -31 37 -68 53 -84 15 -16 28 -30 28 -32 0 -2
-31 -2 -68 0 -62 3 -72 1 -100 -23 l-32 -27 0 -179 c0 -98 -3 -179 -7 -179 -5
0 -73 -15 -153 -34 -548 -128 -967 -362 -1196 -666 -101 -134 -164 -272 -180
-391 l-7 -49 -117 0 -118 0 20 63 c11 34 43 139 72 232 28 94 139 452 246 798
l195 627 670 0 670 0 24 -56z"/>
<path d="M3586 2531 c-10 -11 -19 -26 -20 -35 -2 -16 -76 -129 -88 -134 -4 -2
-4 -10 -1 -18 8 -21 77 59 105 123 l23 53 670 0 670 0 46 -153 c60 -197 362
-1171 432 -1394 l54 -173 -116 0 -116 0 -17 80 c-29 138 -113 297 -232 433
-231 267 -725 516 -1201 607 -33 6 -68 14 -77 16 -16 5 -18 22 -18 179 0 168
-1 175 -24 201 -20 24 -32 28 -90 32 -44 3 -72 0 -79 -7 -19 -19 11 -31 77
-29 85 1 86 -1 86 -204 0 -112 4 -168 11 -168 5 0 7 -5 4 -10 -6 -10 5 -17 40
-22 11 -2 22 -6 25 -9 3 -3 57 -16 120 -29 63 -13 120 -26 125 -30 6 -4 29
-11 52 -15 24 -4 45 -10 48 -15 3 -5 24 -11 48 -15 23 -4 45 -12 48 -17 3 -5
17 -10 30 -12 13 -1 39 -10 57 -20 17 -9 32 -13 32 -9 0 5 4 4 8 -2 9 -13 94
-56 87 -44 -6 8 54 -20 65 -31 9 -9 83 -45 94 -45 6 -1 10 -7 8 -14 -1 -7 2
-10 7 -7 5 4 12 2 16 -4 4 -6 10 -8 15 -5 4 3 13 -2 20 -10 7 -8 17 -15 22
-15 9 0 23 -10 59 -42 10 -10 19 -16 19 -13 0 3 20 -10 44 -28 24 -17 52 -38
62 -45 10 -7 12 -10 4 -7 -8 3 -4 -2 10 -12 14 -10 36 -29 49 -43 13 -14 21
-18 16 -10 -4 8 1 6 12 -5 11 -11 19 -21 18 -23 -2 -3 34 -46 82 -98 13 -14
23 -27 22 -29 0 -3 12 -20 26 -39 14 -18 25 -36 25 -40 0 -5 9 -21 21 -37 11
-16 18 -29 14 -29 -3 0 3 -17 14 -38 26 -51 48 -120 56 -173 4 -24 12 -47 18
-51 7 -4 8 -8 2 -8 -5 0 -3 -5 5 -10 17 -11 240 -13 256 -2 18 12 8 65 -38
207 -5 17 -12 41 -14 55 -3 13 -9 29 -14 35 -5 6 -11 24 -14 41 -3 16 -15 56
-26 89 -12 33 -23 69 -24 80 -2 11 -14 54 -28 95 -14 41 -37 116 -52 165 -15
50 -40 126 -54 170 -14 44 -26 82 -27 85 0 3 -7 25 -16 50 -9 25 -27 83 -39
130 -13 47 -26 90 -29 95 -3 6 -6 15 -7 21 -1 7 -18 63 -38 125 -20 63 -48
152 -63 199 -15 47 -33 95 -41 108 l-14 22 -673 0 c-649 0 -672 -1 -689 -19z"/>
<path d="M2486 2190 c-17 -17 -18 -40 -18 -315 0 -270 1 -297 17 -315 18 -19
34 -20 530 -20 475 0 513 1 528 18 13 15 16 58 16 315 1 269 -1 299 -17 315
-16 16 -58 17 -527 19 -490 2 -511 2 -529 -17z m1044 -317 l0 -303 -515 0
-515 0 0 303 0 302 515 0 515 0 0 -302z"/>
<path d="M3691 1776 c-21 -22 -22 -31 -20 -164 1 -148 -5 -172 -46 -172 -9 0
-14 -3 -12 -7 3 -5 -24 -8 -60 -8 -95 0 -111 -34 -35 -74 12 -7 28 -9 34 -5 7
4 8 3 4 -4 -4 -7 -1 -12 7 -12 8 0 25 -8 38 -19 13 -10 36 -22 50 -27 46 -16
217 -166 211 -185 -1 -5 4 -9 11 -9 27 0 118 -185 134 -274 5 -26 23 -47 34
-40 5 3 9 2 9 -3 0 -4 229 -7 509 -5 l509 2 16 25 c9 14 14 25 10 25 -4 0 0 8
7 17 8 9 9 14 3 10 -7 -4 -16 11 -25 41 -36 132 -112 248 -267 409 -8 7 -30
26 -50 41 -20 15 -47 38 -60 52 -13 14 -20 18 -16 10 4 -8 -3 -5 -15 8 -12 12
-29 22 -37 22 -9 0 -12 5 -8 12 4 6 3 8 -4 4 -6 -3 -14 -1 -17 4 -4 6 -17 15
-28 21 -12 5 -31 15 -42 21 -42 28 -100 62 -105 64 -3 0 -25 10 -50 21 -88 41
-125 56 -132 55 -5 -1 -8 2 -8 8 0 6 -3 9 -7 8 -5 -1 -21 4 -36 10 -16 7 -34
12 -41 12 -6 0 -16 4 -22 9 -5 6 -20 12 -34 15 -14 2 -51 14 -82 25 -32 11
-70 22 -85 25 -42 8 -115 24 -143 32 -14 3 -35 7 -47 8 -11 0 -19 4 -16 9 10
17 -15 5 -36 -17z m149 -41 c187 -46 353 -102 478 -160 29 -14 55 -25 59 -25
3 0 47 -23 97 -52 253 -143 440 -317 529 -493 26 -53 67 -169 67 -192 0 -11
-89 -13 -517 -11 l-516 3 -13 57 c-32 139 -140 292 -283 397 -70 52 -213 131
-236 131 -8 0 -16 4 -19 8 -2 4 24 6 59 4 78 -5 108 2 135 30 18 20 20 35 20
179 0 144 1 157 18 153 9 -2 64 -15 122 -29z"/>
<path d="M2276 1783 c-3 -3 -19 -6 -36 -5 -17 0 -28 -3 -25 -9 3 -5 -1 -6 -9
-3 -8 3 -21 2 -28 -2 -7 -5 -15 -9 -18 -9 -57 -8 -101 -18 -105 -26 -4 -5 -10
-7 -15 -4 -5 3 -11 1 -15 -5 -4 -6 -11 -8 -16 -4 -5 3 -15 1 -22 -4 -7 -6 -29
-13 -49 -17 -21 -4 -38 -11 -38 -15 0 -5 -18 -11 -40 -15 -22 -4 -40 -11 -40
-16 0 -5 -3 -8 -7 -7 -5 1 -24 -3 -43 -10 -19 -7 -36 -12 -38 -12 -7 2 -187
-95 -190 -102 -2 -4 -12 -8 -22 -8 -10 0 -25 -6 -32 -14 -8 -7 -30 -21 -48
-31 -30 -16 -105 -69 -120 -85 -3 -3 -21 -17 -40 -30 -32 -22 -115 -100 -106
-100 2 0 -20 -24 -48 -53 -39 -40 -54 -50 -65 -42 -12 8 -13 7 -4 -9 9 -16 5
-27 -18 -59 -16 -22 -29 -44 -29 -50 0 -5 -8 -16 -17 -24 -10 -8 -12 -12 -5
-8 7 3 4 -8 -7 -27 -19 -32 -39 -95 -47 -148 -3 -14 1 -33 8 -43 12 -16 50
-17 524 -17 281 0 519 2 528 6 9 3 25 36 37 78 25 86 88 208 126 246 16 16 37
39 48 52 43 48 176 140 267 183 116 55 114 95 -4 95 -108 0 -111 5 -115 191
-2 84 -5 154 -8 157 -7 8 -62 12 -69 5z m59 -330 c9 -37 57 -55 136 -51 38 2
69 0 69 -4 0 -5 -6 -8 -12 -8 -22 0 -135 -57 -200 -101 -167 -113 -289 -275
-327 -437 l-13 -52 -514 0 c-444 0 -514 2 -514 15 0 36 52 172 91 237 83 141
269 310 459 420 214 123 489 226 750 280 l65 13 2 -145 c2 -80 5 -155 8 -167z"/>
<path d="M4990 1396 c0 -2 8 -10 18 -17 15 -13 16 -12 3 4 -13 16 -21 21 -21
13z"/>
<path d="M2827 1329 c-9 -5 -21 -8 -26 -5 -5 3 -27 -1 -50 -9 -23 -8 -45 -14
-49 -14 -24 -1 -172 -54 -172 -62 0 -5 -3 -8 -7 -7 -12 4 -73 -26 -73 -34 0
-5 -5 -8 -11 -8 -6 0 -24 -9 -40 -21 -16 -11 -29 -18 -29 -16 0 10 -104 -100
-139 -148 -41 -54 -91 -161 -91 -192 0 -42 7 -43 406 -43 331 0 385 2 398 15
13 13 15 54 15 261 0 285 -2 294 -73 294 -22 0 -49 -5 -59 -11z m103 -274 l0
-255 -384 0 -385 0 19 54 c66 191 268 352 532 421 108 28 130 32 181 34 l37 1
0 -255z"/>
<path d="M2299 943 c-13 -16 -12 -17 4 -4 9 7 17 15 17 17 0 8 -8 3 -21 -13z"/>
<path d="M3082 1324 c-11 -21 -17 -156 -17 -377 0 -136 2 -150 19 -163 16 -11
88 -14 403 -14 354 0 383 1 392 18 11 21 7 62 -10 93 -7 13 -14 26 -14 29 -11
58 -154 216 -240 265 -27 16 -52 33 -53 37 -2 5 -8 6 -13 2 -5 -3 -9 0 -9 6 0
6 -4 8 -10 5 -5 -3 -10 -1 -10 5 0 6 -4 8 -10 5 -5 -3 -10 -2 -10 3 0 8 -35
23 -62 26 -3 1 -10 4 -14 9 -4 4 -16 7 -26 7 -10 0 -18 5 -18 12 0 6 -3 9 -6
5 -3 -3 -28 1 -55 9 -27 8 -54 12 -59 9 -6 -3 -10 -2 -10 2 0 5 -10 10 -22 11
-13 1 -48 4 -80 8 -48 5 -57 4 -66 -12z m232 -49 c269 -70 459 -221 537 -425
l19 -50 -385 0 -385 0 0 256 0 257 61 -7 c34 -4 103 -18 153 -31z"/>
<path d="M507 637 c-15 -15 -18 -31 -14 -102 2 -49 9 -90 16 -99 12 -14 257
-16 2498 -16 1693 0 2490 3 2504 10 17 9 19 22 19 106 0 63 -4 99 -12 107 -10
9 -605 12 -2503 12 -2387 0 -2491 -1 -2508 -18z m5003 -94 l0 -88 -2495 0
-2495 0 0 88 0 87 2495 0 2495 0 0 -87z"/>
<path d="M406 1083 c-6 -14 -5 -15 5 -6 7 7 10 15 7 18 -3 3 -9 -2 -12 -12z"/>
<path d="M335 851 c-3 -5 -2 -12 3 -15 5 -3 9 1 9 9 0 17 -3 19 -12 6z"/>
</g>
</svg>
