<?xml version="1.0" standalone="no"?>
<!DOCTYPE svg PUBLIC "-//W3C//DTD SVG 20010904//EN"
 "http://www.w3.org/TR/2001/REC-SVG-20010904/DTD/svg10.dtd">
<svg version="1.0" xmlns="http://www.w3.org/2000/svg"
 width="600.000000pt" height="474.000000pt" viewBox="0 0 600.000000 474.000000"
 preserveAspectRatio="xMidYMid meet">
<g transform="translate(0.000000,474.000000) scale(0.100000,-0.100000)"
fill="#000000" stroke="none">
<path d="M2625 4238 c-11 -6 -23 -16 -27 -22 -4 -6 -8 -104 -8 -218 l0 -208
-80 0 -80 0 0 53 c0 60 -24 97 -63 97 -166 3 -560 -2 -572 -6 -8 -3 -24 -22
-36 -42 -28 -47 -56 -93 -101 -162 -20 -30 -114 -176 -208 -325 -95 -148 -188
-293 -206 -321 l-34 -51 0 -1152 0 -1151 -52 0 c-59 -1 -82 -14 -98 -54 -11
-31 7 -79 35 -90 9 -3 959 -6 2111 -6 2081 0 2094 0 2114 20 30 30 27 83 -6
109 l-27 21 -1808 0 -1809 0 0 1070 0 1071 31 62 c17 34 57 107 89 162 31 55
92 166 135 246 l79 147 175 0 c97 1 184 1 194 2 35 0 57 36 57 95 l0 55 80 0
80 0 0 -285 c0 -280 0 -285 22 -305 32 -29 81 -27 107 6 19 24 21 40 21 153
l0 126 45 -3 c34 -3 45 -8 45 -21 1 -9 16 -119 34 -245 30 -203 36 -232 56
-248 19 -15 42 -18 165 -18 121 0 146 3 164 18 19 15 26 47 56 257 19 132 35
243 35 246 0 4 27 9 60 11 74 5 100 26 100 78 0 72 7 71 -399 70 l-361 0 0
360 0 361 -25 24 c-26 27 -58 31 -90 13z m65 -32 c13 -5 15 -57 17 -362 2
-343 3 -357 22 -375 19 -18 42 -19 374 -19 l354 0 11 -25 c17 -37 -12 -58 -78
-59 -40 -1 -54 -5 -63 -21 -17 -28 -40 -158 -41 -232 -1 -17 -3 -29 -6 -26 -3
2 -10 -40 -17 -94 -23 -179 -6 -164 -184 -162 -82 0 -148 4 -147 7 1 4 -2 14
-5 22 -3 8 -15 82 -27 164 -11 82 -22 152 -24 155 -4 5 -17 107 -19 139 0 6
-4 12 -9 12 -5 0 -7 4 -3 9 6 11 -14 19 -68 25 -23 3 -35 1 -32 -4 4 -6 -1
-10 -9 -10 -21 0 -25 -24 -28 -158 -3 -101 -5 -115 -23 -125 -22 -12 -50 -19
-41 -10 3 3 -2 11 -10 18 -15 10 -16 43 -15 281 3 327 7 315 -110 313 -88 -2
-103 -13 -108 -79 -5 -78 -7 -79 -214 -76 l-182 2 -27 -29 c-15 -17 -25 -34
-22 -38 3 -5 1 -9 -3 -9 -5 0 -24 -30 -43 -67 -19 -38 -39 -71 -45 -75 -6 -5
-6 -8 -1 -8 6 0 1 -7 -10 -16 -10 -8 -13 -13 -6 -9 7 3 -1 -14 -18 -38 -16
-25 -30 -52 -30 -60 0 -8 -7 -20 -15 -27 -8 -7 -13 -16 -10 -20 3 -5 1 -10 -3
-12 -5 -1 -21 -23 -36 -48 -15 -25 -25 -37 -22 -27 4 11 2 16 -5 12 -6 -4 -8
-14 -4 -22 3 -9 -9 -41 -26 -71 -25 -45 -32 -71 -37 -141 -10 -122 -9 -2018 1
-2063 4 -20 14 -39 23 -42 8 -3 830 -6 1826 -6 1551 0 1809 -2 1799 -14 -9
-11 -9 -16 0 -22 8 -5 9 -3 4 6 -5 9 -4 11 3 6 12 -7 11 -40 -2 -53 -11 -12
-4185 -20 -4178 -9 3 5 -2 6 -12 3 -9 -4 -14 -3 -11 2 3 5 1 12 -4 15 -11 7
-9 24 6 50 8 15 22 19 67 19 31 -1 54 3 51 7 -3 4 2 13 10 20 13 11 15 151 15
1150 0 1117 1 1190 29 1190 4 0 15 17 26 38 21 38 49 84 85 137 54 80 90 138
90 146 0 5 4 9 9 9 5 0 14 13 21 29 6 16 20 37 31 47 10 9 16 21 13 25 -3 5 0
9 6 9 6 0 8 5 5 10 -3 6 -3 10 2 10 4 0 21 21 38 48 16 26 45 72 64 102 20 30
36 58 36 61 0 7 34 55 52 74 7 7 10 15 8 17 -3 2 10 21 29 41 l34 37 248 1
c137 0 263 1 281 2 17 1 29 -1 26 -5 -2 -5 3 -8 11 -8 16 0 22 -32 17 -87 -1
-13 3 -23 9 -23 6 0 9 -4 6 -9 -9 -14 21 -21 97 -21 110 0 107 -6 107 236 0
179 2 204 17 212 17 10 28 10 53 -2z"/>
<path d="M1856 3804 c-9 -8 -16 -19 -16 -24 0 -5 -6 -15 -13 -22 -19 -19 -116
-169 -106 -162 5 3 -10 -23 -34 -58 -23 -35 -45 -64 -49 -66 -5 -2 -8 -10 -8
-17 0 -7 -3 -15 -7 -17 -5 -1 -25 -29 -46 -62 -21 -32 -33 -55 -25 -50 7 4 0
-8 -15 -27 -29 -35 -101 -144 -182 -275 l-30 -49 -3 -1113 c-4 -1274 -12
-1166 84 -1160 30 1 54 -1 54 -5 0 -4 8 -4 18 1 9 5 22 8 28 5 6 -2 17 4 25
13 12 14 15 192 17 1111 2 601 7 1091 12 1088 4 -3 6 4 3 15 -3 11 0 20 6 20
6 0 11 6 11 13 0 7 13 34 30 60 16 26 27 47 24 47 -3 0 2 7 10 16 9 8 14 19
11 24 -3 5 -1 11 5 15 9 6 57 93 62 112 1 5 10 17 20 27 10 11 18 26 18 34 0
8 18 41 39 73 22 33 35 57 30 53 -5 -3 4 14 20 38 16 23 27 46 25 50 -3 5 0 8
5 8 6 0 11 5 11 11 0 6 9 24 21 40 l20 29 170 0 c207 0 209 1 209 108 0 115 6
112 -235 112 -172 0 -206 -2 -219 -16z m424 -89 l0 -75 -165 0 c-100 0 -174
-4 -189 -11 -17 -8 -51 -60 -112 -173 -48 -88 -135 -246 -193 -351 l-106 -190
0 -1092 0 -1093 -77 0 -78 0 0 1124 0 1123 36 59 c20 32 62 100 95 149 32 50
73 113 89 140 17 28 48 76 68 108 20 32 80 125 132 207 l95 150 202 0 203 0 0
-75z"/>
<path d="M2988 3362 c-31 -6 -33 -39 -13 -197 3 -22 10 -76 15 -120 12 -94 32
-129 79 -133 18 -2 40 0 49 4 10 4 21 6 25 5 5 -1 6 3 3 8 -4 5 -2 11 4 13 10
3 29 89 35 166 3 26 10 86 17 134 16 119 10 126 -110 125 -48 0 -95 -3 -104
-5z m197 -57 c-16 -93 -45 -302 -45 -326 0 -28 -1 -29 -53 -29 l-53 0 -23 173
c-12 94 -25 181 -27 192 -5 19 0 20 101 20 l105 0 -5 -30z"/>
<path d="M4115 3776 c-75 -28 -125 -88 -143 -169 -16 -79 4 -145 67 -210 101
-106 287 -73 355 64 44 89 31 182 -35 254 -62 67 -163 92 -244 61z m168 -34
c15 -7 27 -16 27 -21 0 -5 9 -13 20 -16 11 -4 18 -11 15 -16 -4 -5 -1 -9 4 -9
6 0 11 -6 11 -14 0 -7 6 -19 14 -25 10 -8 14 -33 14 -78 -1 -89 -29 -138 -103
-174 -73 -36 -137 -32 -205 13 -33 22 -45 35 -37 40 9 6 9 8 0 8 -31 0 -56
110 -41 182 7 32 77 99 121 114 38 14 121 11 160 -4z"/>
<path d="M4138 3643 c-21 -14 -38 -31 -39 -37 -7 -80 -4 -92 23 -119 15 -16
32 -26 38 -22 5 3 10 1 10 -4 0 -18 42 -13 57 7 9 10 12 11 7 2 -4 -8 8 -1 27
17 26 24 34 40 33 65 0 49 -19 85 -53 103 -41 20 -59 18 -103 -12z m91 -18
c65 -33 39 -135 -34 -135 -79 0 -104 111 -32 140 31 12 34 12 66 -5z"/>
<path d="M3505 3521 c-3 -5 -2 -12 3 -15 5 -3 9 1 9 9 0 17 -3 19 -12 6z"/>
<path d="M4517 3514 c-57 -30 -43 -101 30 -162 97 -79 290 -319 376 -467 78
-136 96 -151 150 -133 59 21 61 66 6 167 -91 165 -239 357 -386 504 -96 95
-132 113 -176 91z m90 -50 c90 -73 323 -338 323 -366 0 -6 12 -19 26 -30 14
-11 23 -26 20 -34 -3 -7 -1 -14 3 -16 8 -3 84 -117 87 -130 1 -5 2 -12 3 -17
0 -5 8 -17 17 -25 10 -11 11 -16 3 -16 -7 0 -9 -3 -6 -6 15 -15 -15 -44 -44
-44 -18 0 -28 4 -24 10 3 6 -1 10 -10 10 -9 0 -14 4 -11 9 3 5 -2 19 -12 32
-9 13 -28 44 -41 69 -22 41 -96 148 -111 160 -3 3 -14 18 -23 33 -24 37 -42
60 -95 118 -27 29 -41 53 -36 60 4 8 3 9 -4 5 -15 -9 -158 132 -154 152 2 8
-1 11 -8 7 -9 -6 -9 -2 -1 12 6 11 7 24 3 28 -4 5 -1 5 6 1 6 -4 12 -3 12 2 0
18 43 5 77 -24z"/>
<path d="M4375 3304 c-42 -45 -34 -64 78 -182 56 -59 129 -143 162 -187 74
-100 80 -105 126 -105 43 0 69 27 69 72 0 36 -124 201 -249 329 -83 86 -100
99 -129 99 -23 0 -41 -8 -57 -26z m105 -31 c14 -7 21 -13 15 -13 -5 0 14 -21
42 -47 57 -54 173 -189 210 -245 14 -20 26 -50 27 -67 2 -25 -3 -32 -26 -40
-33 -12 -40 -6 -121 105 -50 68 -133 160 -209 231 -20 19 -35 42 -33 51 2 9 4
22 4 29 2 24 40 22 91 -4z"/>
<path d="M4811 2724 c-12 -15 -21 -33 -21 -42 0 -8 17 -53 38 -101 22 -47 52
-119 68 -160 23 -60 34 -76 58 -86 49 -21 105 11 106 61 0 51 -122 329 -152
345 -33 18 -76 10 -97 -17z m74 -5 c-3 -4 2 -9 10 -13 16 -6 95 -159 95 -183
0 -8 8 -28 17 -46 17 -34 25 -88 14 -104 -9 -14 -51 -23 -51 -11 0 5 -4 7 -8
4 -5 -3 -16 8 -26 25 -9 16 -14 29 -11 29 3 0 3 6 -2 13 -4 6 -8 17 -9 22 -1
6 -11 31 -23 58 -11 26 -21 51 -21 55 -1 4 -9 15 -17 25 -9 9 -14 17 -11 17 3
0 0 17 -7 38 -12 33 -11 39 6 58 18 19 54 30 44 13z"/>
<path d="M5123 2670 c-51 -21 -55 -72 -12 -178 35 -89 43 -99 86 -108 26 -5
37 -1 57 19 33 34 33 58 -4 155 -40 103 -74 133 -127 112z m71 -52 c9 -12 16
-33 16 -47 0 -13 7 -32 15 -41 9 -10 17 -27 20 -39 2 -11 6 -25 9 -30 7 -11
-38 -53 -55 -49 -21 5 -45 38 -59 83 -7 22 -16 45 -20 50 -4 6 -10 22 -14 37
-12 52 57 81 88 36z"/>
</g>
</svg>
