<?xml version="1.0" standalone="no"?>
<!DOCTYPE svg PUBLIC "-//W3C//DTD SVG 20010904//EN"
 "http://www.w3.org/TR/2001/REC-SVG-20010904/DTD/svg10.dtd">
<svg version="1.0" xmlns="http://www.w3.org/2000/svg"
 width="600.000000pt" height="741.000000pt" viewBox="0 0 600.000000 741.000000"
 preserveAspectRatio="xMidYMid meet">
<g transform="translate(0.000000,741.000000) scale(0.100000,-0.100000)"
fill="#000000" stroke="none">
<path d="M3490 6895 c-178 -40 -303 -154 -373 -338 -30 -79 -31 -87 -32 -242
0 -156 1 -162 29 -225 27 -60 29 -73 27 -165 -4 -144 16 -226 89 -370 83 -164
88 -199 91 -605 2 -296 0 -337 -20 -455 -12 -71 -28 -185 -35 -251 -16 -146
-32 -185 -124 -293 -35 -42 -96 -116 -135 -164 l-71 -88 -15 28 c-8 15 -15 54
-16 86 0 52 -4 62 -28 83 -15 13 -40 26 -55 29 -15 3 -57 15 -94 27 -52 16
-74 29 -97 58 -37 46 -135 97 -203 106 -40 5 -51 12 -63 34 -8 15 -29 33 -47
40 -18 7 -55 23 -81 37 -40 21 -57 24 -100 19 -29 -3 -71 -6 -94 -6 -46 1
-107 -26 -137 -59 -11 -12 -30 -21 -43 -21 -38 0 -100 -37 -130 -77 -15 -20
-43 -50 -61 -67 -40 -37 -62 -76 -62 -110 0 -14 -11 -42 -25 -62 -43 -64 -60
-169 -31 -193 13 -11 13 -18 0 -53 -16 -46 -11 -79 31 -187 25 -68 71 -121
102 -121 6 0 20 -17 30 -37 24 -47 88 -97 153 -120 40 -14 49 -22 54 -47 3
-16 5 -30 4 -30 -2 -1 -30 -14 -63 -31 -153 -76 -231 -217 -242 -437 -9 -177
14 -307 141 -781 19 -70 42 -169 50 -220 17 -99 36 -370 36 -506 0 -81 -1 -86
-50 -177 -49 -90 -51 -95 -40 -135 6 -23 16 -49 22 -58 8 -13 -7 -43 -66 -140
l-76 -123 0 -74 c0 -89 5 -94 130 -118 154 -29 280 -34 739 -28 428 5 455 6
473 24 10 10 16 22 14 27 -8 12 29 219 59 327 15 53 55 178 90 278 127 362
149 461 150 651 0 77 -3 155 -7 173 l-7 32 97 0 c81 0 105 4 148 24 87 40 124
109 124 228 0 45 12 117 34 206 46 185 45 181 56 429 14 326 42 458 122 560
65 84 115 163 133 211 11 27 24 44 38 47 12 3 52 12 88 20 132 30 193 74 187
136 -3 29 -9 37 -46 54 -39 19 -41 22 -28 40 7 11 19 39 26 62 11 37 11 45 -4
68 -33 51 -72 58 -259 50 -161 -7 -169 -6 -164 11 27 92 32 157 32 384 0 286
-17 446 -72 675 -48 202 -52 262 -31 420 10 72 18 175 18 231 l0 100 60 12
c117 21 250 104 330 205 51 64 114 194 129 265 14 68 14 206 0 274 -15 71 -69
183 -115 236 -114 133 -295 210 -514 218 -79 2 -135 -1 -180 -11z m295 -31
c22 -3 47 -7 55 -8 9 -1 20 -5 25 -8 6 -3 28 -11 50 -18 22 -7 50 -19 63 -27
12 -7 27 -11 32 -8 6 4 13 -1 16 -9 3 -9 12 -16 20 -16 8 0 24 -11 36 -25 11
-13 26 -22 31 -18 6 3 7 1 3 -5 -4 -8 3 -16 18 -22 14 -5 26 -12 26 -15 0 -4
-6 -3 -12 1 -9 5 -9 3 1 -9 7 -9 18 -14 24 -10 5 3 7 1 3 -5 -3 -6 -2 -13 3
-16 5 -4 21 -27 35 -51 14 -25 21 -43 15 -40 -5 4 0 -9 10 -27 44 -74 58 -256
28 -355 -8 -28 -12 -55 -9 -59 4 -4 2 -4 -4 -1 -7 4 -11 -3 -11 -19 0 -14 -10
-35 -22 -48 -12 -13 -21 -27 -19 -32 6 -20 -110 -151 -169 -191 -48 -34 -155
-83 -185 -86 -18 -2 -47 -11 -64 -21 l-30 -18 -1 -104 c-1 -100 -4 -133 -21
-234 -13 -80 -6 -270 12 -335 10 -33 18 -67 18 -75 0 -8 5 -20 10 -27 5 -7 7
-17 4 -22 -4 -6 0 -25 8 -44 15 -38 17 -53 52 -402 12 -131 1 -419 -21 -530
-2 -11 -7 -33 -10 -48 -4 -22 -3 -27 7 -21 11 6 11 5 0 -8 -10 -13 -10 -17 3
-22 9 -3 13 -2 10 4 -7 12 -9 12 205 14 156 3 207 -4 195 -24 -3 -5 -1 -11 4
-14 11 -7 4 -55 -10 -72 -5 -6 -5 -15 -1 -19 4 -5 1 -4 -7 0 -11 6 -13 4 -8
-8 3 -10 2 -17 -4 -17 -6 0 -6 -8 1 -21 10 -18 9 -19 -7 -12 -19 10 -54 10
-70 0 -5 -3 -10 0 -10 8 0 8 4 16 9 16 4 1 13 2 19 3 16 2 59 47 59 63 0 8 5
11 11 7 8 -5 8 -1 0 13 -11 22 -53 43 -91 45 -62 4 -131 -3 -125 -12 3 -5 0
-8 -7 -5 -7 3 -31 -4 -53 -15 -47 -24 -55 -25 -55 -5 0 15 -38 37 -50 30 -3
-2 -25 -6 -48 -9 -24 -2 -49 -9 -56 -15 -7 -6 -16 -7 -20 -3 -4 4 -14 -2 -22
-12 -8 -11 -14 -16 -14 -10 0 5 -11 -4 -25 -20 -14 -16 -25 -25 -25 -20 0 5
-10 -7 -22 -26 -13 -19 -29 -41 -38 -48 -13 -12 -13 -12 0 -6 10 5 9 0 -4 -14
-11 -12 -15 -22 -10 -22 5 0 3 -4 -5 -9 -8 -5 -16 -18 -17 -28 -5 -51 -78
-302 -111 -383 -3 -8 -7 -22 -8 -30 -2 -8 -13 -51 -25 -95 -12 -44 -23 -84
-24 -90 -13 -54 -20 -75 -32 -107 -8 -21 -11 -38 -7 -38 4 0 2 -5 -5 -12 -7
-7 -12 -19 -12 -28 0 -10 -14 -36 -31 -60 -17 -23 -25 -39 -18 -35 8 6 10 4 5
-4 -5 -7 -13 -10 -20 -8 -7 3 -13 -3 -13 -13 -1 -10 -11 -28 -22 -39 -12 -12
-21 -26 -21 -32 0 -5 -4 -7 -10 -4 -5 3 -10 2 -10 -3 0 -5 -13 -23 -29 -39
-15 -17 -31 -36 -35 -44 -5 -12 -7 -12 -12 0 -4 8 -19 27 -35 44 -16 16 -26
34 -23 39 3 4 2 8 -3 7 -32 -5 -111 49 -95 66 4 5 1 5 -5 1 -7 -4 -34 2 -59
14 -81 35 -148 49 -168 35 -9 -7 -18 -22 -19 -33 0 -11 -5 -18 -9 -16 -5 3 -6
9 -4 13 10 16 -48 147 -89 199 -39 52 -149 140 -166 135 -5 -2 -9 1 -9 6 0 10
-38 24 -57 22 -7 -1 -13 2 -13 7 0 5 -6 9 -12 10 -7 0 -31 5 -54 11 -25 6 -53
7 -72 2 -17 -5 -33 -7 -35 -4 -7 7 -107 -46 -107 -56 0 -6 -9 -13 -20 -16 -11
-3 -20 -13 -20 -21 0 -8 -4 -14 -9 -14 -14 0 -40 -88 -43 -143 -1 -28 -8 -53
-17 -60 -12 -10 -13 -9 -7 3 4 8 -2 4 -13 -10 -11 -14 -21 -33 -21 -42 0 -27
-1 -31 -12 -52 -16 -30 -18 -216 -2 -254 7 -17 11 -32 8 -32 -3 0 10 -28 28
-62 36 -68 171 -214 188 -203 5 3 10 2 10 -3 0 -5 24 -17 52 -27 74 -24 162
-14 201 23 33 31 33 41 5 78 -13 16 -32 48 -44 71 -11 24 -24 40 -29 36 -4 -5
-5 -2 -1 4 5 10 11 10 26 0 11 -6 20 -17 20 -24 0 -6 18 -30 40 -53 22 -23 40
-45 40 -50 0 -5 5 -12 12 -16 7 -5 8 -3 3 6 -5 8 5 4 22 -8 17 -12 36 -22 42
-22 6 0 11 -5 11 -11 0 -6 7 -9 15 -6 8 4 17 1 21 -5 5 -7 2 -8 -7 -3 -8 5
-11 4 -6 -1 5 -5 10 -7 11 -4 1 3 15 -3 30 -14 17 -11 25 -13 20 -5 -6 11 -3
10 10 -1 10 -8 26 -19 36 -25 10 -5 28 -16 40 -23 19 -12 21 -12 14 0 -4 7 1
5 12 -4 11 -10 43 -25 72 -34 29 -9 52 -21 52 -26 0 -5 4 -7 9 -3 5 3 15 0 23
-7 7 -7 20 -14 28 -16 8 -2 18 -9 22 -15 6 -9 8 -9 8 0 0 8 21 2 58 -14 31
-15 65 -26 75 -26 9 1 17 -2 17 -6 0 -5 28 -14 63 -21 34 -8 64 -14 67 -15 29
-6 85 -16 130 -20 54 -6 140 10 140 26 0 5 6 6 13 4 6 -2 27 14 45 37 25 31
30 43 20 49 -8 5 -17 0 -26 -16 -21 -41 -81 -65 -162 -65 -172 0 -429 84 -757
248 -152 77 -162 84 -214 147 -62 77 -123 121 -182 130 -22 4 -65 20 -94 36
-38 21 -53 25 -53 15 0 -22 60 -68 137 -105 66 -32 75 -39 104 -94 17 -33 40
-68 51 -79 18 -18 18 -19 -28 -38 -25 -11 -64 -20 -87 -20 -123 0 -279 145
-329 304 -16 50 -19 78 -14 151 3 50 12 113 19 140 l14 50 17 -52 c19 -56 79
-127 122 -143 33 -13 64 -13 64 0 0 6 -6 10 -14 10 -27 0 -75 51 -105 112 -26
51 -31 73 -31 133 0 88 13 130 54 173 84 91 194 100 341 28 66 -32 150 -105
191 -164 53 -77 86 -230 58 -271 -21 -29 2 -38 30 -12 24 22 53 122 41 141 -9
14 4 13 70 -10 88 -30 154 -65 218 -116 54 -42 58 -48 50 -72 -10 -34 -11
-188 0 -198 11 -11 25 12 38 61 36 140 39 144 112 224 96 105 133 182 201 426
30 110 64 227 76 260 11 33 34 112 51 175 49 186 89 256 174 306 38 22 152 50
163 40 2 -2 -16 -22 -40 -44 -23 -22 -40 -43 -37 -47 4 -3 49 14 101 39 128
61 281 81 295 39 7 -19 -39 -53 -92 -67 -27 -8 -72 -21 -99 -28 -54 -15 -78
-40 -58 -60 9 -9 31 -8 99 6 49 10 111 16 138 14 46 -3 50 -5 50 -28 0 -23 -5
-26 -50 -31 -71 -9 -176 -37 -202 -55 -13 -8 -34 -37 -48 -64 -14 -28 -50 -84
-79 -125 l-54 -75 -4 65 c-4 62 -11 85 -24 72 -3 -3 -12 -51 -20 -108 -14 -99
-40 -179 -63 -193 -6 -4 -11 -14 -11 -22 0 -12 4 -13 21 -3 18 9 20 8 15 -9
-22 -68 -39 -203 -46 -372 -5 -107 -14 -224 -20 -260 -21 -132 -63 -320 -72
-320 -4 0 -8 23 -8 50 0 57 -13 65 -29 19 -15 -43 -14 -74 4 -133 14 -45 14
-50 -3 -62 -42 -32 -186 -39 -282 -13 -44 11 -50 11 -50 -1 0 -17 77 -50 148
-62 82 -14 168 0 197 32 19 21 25 83 12 135 -5 21 -5 26 2 15 9 -13 12 -12 25
5 15 18 21 36 47 135 25 95 51 277 54 380 5 178 15 302 26 337 6 18 7 38 3 44
-4 7 -3 9 3 6 7 -5 11 12 11 48 -1 37 -5 52 -12 48 -6 -4 -3 3 7 14 9 11 14
23 10 26 -3 4 -2 7 4 7 5 0 10 6 11 13 1 14 9 52 17 77 4 12 12 16 24 13 12
-3 25 4 37 22 11 15 33 42 50 60 17 19 30 36 28 38 -3 2 2 10 11 17 8 7 15 18
15 25 0 19 68 103 89 110 10 3 35 8 56 10 20 3 45 10 56 15 11 6 23 8 28 5 23
-14 121 52 103 69 -13 14 -10 35 5 29 34 -13 33 -83 -2 -83 -8 0 -15 -4 -15
-10 0 -5 -9 -10 -19 -10 -11 0 -21 -5 -23 -10 -2 -6 -17 -13 -33 -15 -17 -2
-30 -4 -30 -5 0 -1 -7 -3 -15 -5 -91 -18 -136 -43 -151 -82 -5 -14 -14 -21
-21 -17 -7 4 -8 3 -4 -4 9 -14 -33 -114 -45 -106 -5 3 -9 0 -9 -7 0 -12 -64
-96 -88 -114 -7 -6 -12 -15 -11 -20 2 -6 -2 -20 -9 -32 -7 -13 -10 -23 -6 -23
3 0 1 -6 -5 -14 -12 -14 -17 -34 -25 -92 -2 -16 -6 -36 -9 -44 -13 -38 -25
-155 -26 -265 -2 -178 -13 -324 -26 -345 -2 -4 -7 -22 -9 -41 -3 -19 -16 -77
-30 -131 -14 -56 -26 -129 -27 -175 -1 -43 -5 -82 -9 -88 -5 -5 -9 -14 -10
-20 -7 -38 -74 -96 -102 -87 -5 1 -8 -1 -8 -6 0 -8 -12 -9 -126 -14 -77 -3
-121 -19 -109 -39 15 -23 21 -238 9 -308 -5 -34 -40 -203 -50 -246 -3 -11 -6
-24 -7 -30 -2 -5 -5 -14 -9 -20 -3 -5 -25 -68 -48 -140 -23 -71 -45 -134 -50
-140 -9 -11 -25 -76 -22 -88 2 -5 -3 -5 -9 -1 -7 4 -10 2 -7 -7 3 -8 0 -28 -7
-46 -8 -17 -11 -34 -7 -37 3 -3 1 -6 -5 -6 -5 0 -10 -13 -11 -29 0 -17 -5 -38
-10 -48 -10 -20 -38 -151 -47 -223 -7 -62 -10 -79 -16 -84 -13 -13 -920 -25
-962 -13 -17 4 -26 4 -23 -1 5 -9 -5 -8 -74 4 -19 4 -51 7 -72 8 -20 0 -34 5
-30 10 3 5 -2 7 -11 3 -10 -3 -17 -2 -17 3 0 5 -8 9 -17 8 -35 -3 -83 14 -84
31 -5 77 -2 109 12 131 40 62 99 163 99 169 0 5 8 15 18 25 21 19 22 50 2 86
-14 26 -16 83 -3 103 4 7 8 14 8 17 0 3 12 23 26 45 49 78 57 126 45 275 -2
25 -6 101 -10 170 -8 153 -22 267 -42 340 -8 30 -17 66 -20 80 -2 14 -7 32
-10 40 -3 8 -15 49 -26 90 -11 41 -24 91 -29 110 -5 19 -11 42 -13 51 -2 8
-11 38 -19 66 -9 29 -13 62 -10 74 5 17 3 20 -7 14 -8 -5 -11 -4 -7 2 4 6 2
24 -3 42 -10 37 -33 248 -33 306 0 46 8 123 15 145 3 8 10 31 17 50 7 19 13
40 15 45 1 6 13 28 28 50 14 22 26 44 26 48 1 4 25 26 54 47 29 21 59 44 66
50 6 6 12 8 12 4 0 -3 7 -1 15 6 8 7 15 10 15 7 0 -3 15 8 33 25 20 19 28 32
20 35 -7 3 -13 13 -13 22 0 19 -42 64 -56 59 -14 -4 -74 23 -74 34 0 6 -7 7
-16 4 -8 -3 -13 -2 -10 2 7 11 -30 42 -39 34 -4 -4 -5 -2 -3 4 3 13 -61 98
-69 90 -7 -7 -53 36 -53 51 0 7 -5 13 -11 13 -5 0 -8 4 -4 9 3 5 1 12 -4 16
-6 3 -8 12 -5 19 3 7 -1 20 -9 27 -7 8 -14 23 -15 34 -4 60 -2 109 7 118 10
10 -6 57 -19 57 -7 0 -2 56 8 80 3 8 6 22 7 30 1 9 15 36 30 60 16 25 27 46
26 48 -9 9 16 72 38 94 26 28 53 39 32 15 -6 -8 -8 -17 -4 -20 3 -4 0 -13 -7
-22 -7 -8 -9 -15 -5 -15 4 0 2 -7 -5 -15 -18 -22 -6 -18 37 10 20 14 46 42 58
62 23 41 58 69 98 79 26 6 28 5 21 -20 -4 -17 0 -35 10 -51 23 -35 33 -31 32
11 -1 47 24 66 52 41 17 -16 20 -16 32 -2 23 28 48 37 71 25 24 -13 32 -9 24
13 -10 23 -59 41 -82 28 -11 -5 -29 -8 -41 -4 -13 3 -29 -3 -43 -16 -17 -16
-26 -18 -41 -10 -31 16 -82 2 -121 -34 -21 -18 -37 -39 -37 -46 0 -7 -5 -9
-12 -5 -7 5 -9 2 -5 -9 7 -18 -19 -32 -29 -15 -4 6 -3 8 3 5 6 -4 9 5 8 21 -1
31 73 112 105 115 11 1 20 5 20 10 0 4 5 5 10 2 6 -4 18 -1 27 7 14 11 16 11
8 -2 -4 -8 2 -5 14 8 12 12 26 22 32 22 6 0 7 5 4 10 -4 6 -3 9 2 8 4 -1 17 3
28 8 11 6 43 11 71 12 28 0 67 5 88 10 20 6 36 7 36 2 0 -4 14 -10 31 -14 18
-3 37 -13 43 -21 6 -8 22 -17 36 -20 38 -7 69 -26 75 -46 6 -18 55 -37 108
-41 14 -1 23 -6 20 -12 -4 -5 3 -7 15 -4 14 4 20 2 15 -5 -4 -6 0 -8 9 -4 10
3 39 -17 84 -59 63 -60 105 -83 169 -90 49 -6 89 -25 93 -44 6 -26 5 -44 -3
-64 -6 -14 -5 -17 4 -11 10 6 11 3 2 -14 -10 -17 -9 -21 4 -21 8 0 14 -3 14
-7 -4 -26 4 -45 26 -59 28 -18 31 -17 105 76 25 30 50 59 58 63 7 5 10 12 7
18 -4 5 1 9 9 9 8 0 18 5 22 12 5 7 2 8 -7 3 -8 -4 2 6 21 23 19 17 31 31 27
32 -5 0 5 12 22 26 17 14 29 30 26 34 -3 5 0 12 7 17 7 4 20 17 28 27 13 17
13 19 0 11 -8 -5 -5 3 7 19 26 33 50 138 58 260 3 49 8 93 10 96 4 6 19 93 32
175 10 69 4 652 -7 737 -6 37 -17 86 -25 110 -9 24 -17 48 -19 53 -4 19 -39
80 -48 86 -5 3 -9 8 -8 10 1 2 -10 31 -25 64 -14 33 -29 78 -32 100 -3 22 -8
58 -12 81 -4 22 -4 70 0 106 9 75 8 81 -13 128 -18 37 -33 85 -28 85 2 0 -2
10 -9 23 -16 29 -18 211 -3 271 6 25 9 49 6 53 -3 4 0 8 6 8 7 0 9 7 6 16 -3
8 0 25 6 37 7 12 11 26 10 30 -1 5 3 5 9 1 7 -4 10 -1 7 7 -3 8 6 31 19 51 12
21 23 41 23 46 0 14 39 42 45 31 4 -5 11 -7 16 -3 5 3 7 10 4 15 -4 5 3 21 14
35 12 15 21 23 21 18 0 -4 6 0 13 11 8 10 19 15 25 11 6 -3 14 -1 18 5 5 8 3
9 -6 4 -9 -5 -11 -4 -6 3 4 7 16 12 26 12 25 0 51 11 46 19 -2 3 14 7 36 8 23
1 45 6 50 11 10 10 204 8 273 -4z m210 -3224 c-3 -5 -12 -10 -18 -10 -7 0 -6
4 3 10 19 12 23 12 15 0z m-924 -1217 c-12 -20 -14 -14 -5 12 4 9 9 14 11 11
3 -2 0 -13 -6 -23z"/>
<path d="M3660 6843 c-16 -7 -31 -18 -67 -53 l-26 -25 16 24 c15 23 15 25 -2
37 -18 13 -93 10 -115 -4 -12 -7 -18 -9 -42 -11 -8 0 -12 -5 -9 -11 3 -5 -2
-10 -12 -10 -28 0 -86 -53 -88 -81 -1 -16 -7 -23 -19 -21 -9 2 -26 -4 -38 -13
-13 -8 -18 -15 -13 -15 6 0 1 -7 -9 -15 -11 -8 -17 -15 -13 -15 4 0 -2 -10
-13 -22 -25 -27 -40 -79 -28 -94 10 -13 0 -46 -12 -39 -14 9 -30 -56 -35 -140
-3 -43 -2 -75 1 -72 4 3 13 -1 22 -10 12 -11 13 -19 5 -32 -6 -9 -10 -26 -9
-36 3 -34 29 -105 38 -105 4 0 8 -7 8 -15 0 -18 46 -87 66 -98 8 -5 11 -14 8
-20 -4 -7 -4 -9 1 -5 4 4 23 -9 43 -30 19 -20 29 -28 22 -17 -8 12 -2 9 13 -7
36 -36 67 -45 83 -24 11 16 13 15 28 -5 8 -12 12 -27 9 -32 -3 -6 -2 -7 4 -4
5 4 19 -2 29 -11 28 -26 73 -42 135 -48 62 -7 178 -3 199 6 8 4 24 7 41 8 9 1
28 13 43 26 25 20 27 26 16 45 -11 22 -11 22 12 8 30 -19 48 -15 88 19 32 29
44 42 88 92 22 25 82 133 83 149 0 5 7 12 15 16 12 7 11 12 -6 35 l-21 26 21
8 c26 10 30 21 34 99 4 71 -17 181 -40 216 -8 13 -11 23 -7 23 3 0 -3 10 -14
23 -11 12 -26 32 -32 44 -14 28 -112 72 -143 65 -12 -3 -9 13 4 26 10 10 7 17
-12 35 -32 29 -113 70 -170 86 -25 7 -58 17 -74 22 -32 10 -83 11 -106 2z
m-95 -41 c-46 -39 -118 -140 -153 -214 -30 -62 -41 -78 -57 -76 -17 3 -19 9
-15 43 3 22 5 70 4 107 l-1 67 60 32 c57 30 133 57 167 58 11 0 10 -4 -5 -17z
m218 2 c67 -15 244 -90 235 -99 -2 -2 -21 0 -43 5 -92 22 -240 2 -340 -45 -60
-29 -126 -90 -145 -135 -9 -22 -19 -30 -36 -30 l-24 0 36 73 c58 114 176 247
222 247 13 0 55 -7 95 -16z m-498 -230 c-6 -51 -7 -52 -43 -57 -20 -2 -38 -3
-40 -2 -5 4 23 61 53 108 26 41 30 44 33 25 2 -12 1 -45 -3 -74z m772 61 c29
-8 64 -27 77 -42 63 -67 105 -212 92 -316 -4 -31 -9 -57 -11 -57 -3 0 -26 13
-51 30 -79 50 -493 206 -600 226 -39 7 -39 6 -20 42 28 54 105 104 201 129 65
16 242 10 312 -12z m-744 -157 c-15 -17 -33 -16 -33 2 0 5 7 16 16 25 24 23
39 -3 17 -27z m104 35 c-4 -3 -3 -11 1 -17 5 -7 -2 -21 -16 -36 -14 -14 -22
-20 -18 -13 3 6 -1 16 -10 21 -14 8 -12 12 11 30 26 20 47 30 32 15z m96 -59
c-8 -22 -32 -24 -43 -3 -9 16 -7 21 12 28 25 9 40 -3 31 -25z m-264 -47 c-20
-51 -76 -147 -86 -147 -6 0 5 141 14 177 4 17 13 23 41 25 21 2 40 2 44 0 4
-1 -2 -26 -13 -55z m107 36 c-57 -148 -37 -415 39 -528 14 -20 24 -39 22 -42
-5 -5 -94 65 -124 98 -34 38 -92 140 -104 182 -10 38 -9 41 32 89 40 48 98
165 99 201 0 11 8 17 21 17 16 0 19 -4 15 -17z m98 -63 c5 -156 140 -325 389
-490 l88 -58 -48 -18 c-36 -14 -75 -19 -153 -19 -171 0 -197 11 -269 118 -59
87 -74 146 -75 292 -1 159 16 248 45 243 18 -3 21 -12 23 -68z m226 3 c112
-38 341 -133 453 -189 l67 -34 -15 -38 c-31 -72 -69 -128 -131 -189 -34 -35
-67 -63 -71 -63 -5 0 -45 24 -89 53 -249 163 -368 305 -382 450 l-5 59 34 -7
c19 -4 81 -23 139 -42z m390 -118 c7 -9 8 -15 2 -15 -5 0 -12 7 -16 15 -3 8
-4 15 -2 15 2 0 9 -7 16 -15z"/>
<path d="M4080 6576 c0 -2 8 -10 18 -17 15 -13 16 -12 3 4 -13 16 -21 21 -21
13z"/>
<path d="M3525 6081 c-3 -5 -2 -12 3 -15 5 -3 9 1 9 9 0 17 -3 19 -12 6z"/>
<path d="M3576 5878 c3 -5 10 -6 15 -3 13 9 11 12 -6 12 -8 0 -12 -4 -9 -9z"/>
<path d="M3222 5926 c4 -5 1 -14 -6 -22 -13 -12 -13 -42 -2 -109 9 -53 33
-117 80 -218 25 -53 46 -101 46 -106 0 -5 15 -22 33 -36 17 -15 25 -23 17 -19
-13 7 -13 5 -2 -8 10 -13 10 -17 -2 -21 -11 -5 -14 -26 -14 -99 1 -125 1 -125
153 -130 141 -5 153 1 153 80 1 26 6 67 12 92 14 58 24 174 24 278 0 98 -13
118 -85 126 -25 3 -53 8 -62 12 -11 4 -25 0 -37 -11 -18 -16 -20 -16 -37 5
-10 12 -23 28 -30 35 -7 7 -9 16 -5 20 4 5 1 5 -6 1 -7 -4 -20 -2 -29 6 -14
11 -16 11 -8 -2 7 -13 6 -13 -7 -2 -9 7 -20 11 -24 10 -5 -1 -26 15 -46 36
-21 22 -38 35 -38 31 0 -5 -6 -2 -12 7 -7 9 -26 24 -43 34 -16 10 -27 14 -23
10z m118 -145 c0 -34 32 -123 46 -128 8 -3 8 11 3 44 -4 26 -8 58 -8 70 l-1
23 31 -19 c45 -28 116 -118 134 -170 8 -24 15 -64 15 -88 0 -46 14 -58 24 -20
15 55 6 125 -23 180 l-29 54 46 -13 c25 -8 61 -14 80 -14 l35 0 -7 -122 c-4
-68 -14 -166 -22 -218 -7 -52 -14 -115 -14 -139 0 -35 -3 -42 -16 -37 -9 3
-64 6 -124 6 l-108 0 -1 86 c-1 47 -3 90 -7 95 -9 15 13 10 26 -6 13 -16 50
-21 50 -7 0 5 -23 34 -52 66 -72 80 -169 301 -183 420 l-8 60 57 -49 c41 -36
56 -56 56 -74z"/>
<path d="M3383 5835 c0 -8 4 -12 9 -9 5 3 6 10 3 15 -9 13 -12 11 -12 -6z"/>
<path d="M3410 5117 l-25 -13 -1 -159 c-1 -88 2 -167 6 -175 13 -26 24 -183
12 -176 -11 7 -44 -35 -41 -50 1 -5 0 -16 -4 -24 -6 -15 -11 -67 -23 -231 -5
-68 -4 -88 8 -100 13 -12 13 -17 1 -27 -15 -14 -18 -59 -4 -64 5 -1 -13 -27
-40 -57 -27 -30 -47 -56 -45 -58 6 -7 -45 -58 -55 -56 -5 2 -8 0 -8 -5 4 -25
-2 -42 -13 -36 -7 4 -10 4 -6 -1 4 -4 -10 -28 -32 -51 -46 -50 -49 -64 -17
-92 56 -51 95 -82 105 -82 6 0 41 -35 79 -77 89 -101 93 -106 93 -97 0 3 7 0
16 -7 14 -12 20 -9 40 16 25 31 32 51 14 40 -6 -4 -2 8 9 26 11 18 18 36 15
41 -3 4 0 8 7 8 7 0 9 3 6 6 -13 14 110 164 134 164 5 0 9 5 9 11 0 5 5 7 10
4 6 -3 10 -1 10 5 0 6 5 8 10 5 15 -9 50 73 50 119 0 31 3 36 14 27 25 -21 38
7 56 119 11 77 5 460 -10 545 -6 39 -13 86 -16 105 -12 107 -42 256 -55 281
-4 9 -11 31 -14 50 -11 62 -29 71 -156 75 -78 2 -122 -1 -139 -9z m255 -28 c2
-3 16 -49 30 -104 68 -257 102 -680 74 -920 -7 -66 -15 -106 -16 -90 -8 75
-40 175 -56 175 -5 0 -5 -56 -1 -124 8 -146 -1 -188 -47 -206 -74 -31 -190
-197 -206 -294 -3 -20 -7 -36 -9 -36 -2 0 -25 24 -51 53 -78 85 -143 146 -205
189 l-59 41 34 36 c40 42 127 156 153 200 12 21 45 45 96 72 43 22 78 44 78
48 0 8 -64 -1 -107 -14 -49 -15 -14 36 62 92 l30 22 -25 0 c-14 0 -36 -6 -50
-14 -14 -8 -27 -14 -30 -15 -7 0 5 162 21 283 12 94 29 131 29 65 0 -42 10
-78 21 -78 12 0 11 149 -1 230 -14 92 -31 380 -24 392 6 10 248 7 259 -3z"/>
<path d="M2075 4187 c-27 -5 -56 -11 -63 -13 -7 -2 -15 -3 -18 -3 -9 1 -44
-43 -44 -54 0 -6 8 -3 18 6 17 15 122 36 185 37 17 0 39 -11 59 -30 17 -16 40
-30 50 -30 18 0 19 -1 2 -30 -10 -16 -46 -65 -80 -109 -78 -98 -114 -169 -121
-235 -5 -44 -10 -55 -33 -68 -15 -9 -40 -36 -54 -61 -32 -54 -37 -150 -12
-211 20 -49 20 -99 0 -142 -18 -37 -28 -40 -71 -22 -54 23 -85 51 -103 94 -15
34 -28 47 -64 63 -29 12 -46 27 -47 38 -2 34 -4 39 -23 75 -18 33 -18 41 -6
92 11 49 11 58 -4 80 -21 32 -20 51 4 104 23 50 46 57 36 10 -4 -20 -1 -39 9
-55 21 -32 36 -29 29 6 -5 26 -2 32 27 46 l32 17 -26 16 c-54 33 -43 63 29 81
55 14 49 31 -12 31 -59 0 -84 -13 -77 -41 5 -17 3 -20 -7 -14 -9 5 -11 4 -6
-3 4 -6 -11 -29 -34 -52 -23 -23 -40 -44 -37 -46 3 -3 2 -17 -2 -32 -5 -16 -3
-42 4 -62 7 -19 10 -48 7 -65 -9 -51 -3 -119 10 -130 8 -5 13 -20 12 -32 -2
-31 44 -96 62 -89 10 4 12 2 8 -6 -5 -7 -2 -9 8 -6 9 4 21 -4 32 -23 9 -16 14
-29 10 -29 -4 0 14 -20 39 -45 47 -45 65 -56 51 -32 -4 6 2 4 13 -6 11 -9 23
-14 26 -10 4 3 7 1 7 -6 0 -7 10 -10 28 -7 15 2 32 5 38 5 6 1 19 25 29 55 16
47 17 61 7 103 -18 71 -22 94 -24 138 -2 75 2 84 56 136 52 49 55 55 62 115 3
35 11 64 16 64 5 0 6 5 3 10 -3 6 -1 10 5 10 6 0 9 4 6 9 -3 4 6 21 19 37 14
16 25 35 25 43 0 8 3 11 6 8 6 -6 44 35 44 47 0 7 13 24 43 57 9 10 15 19 12
19 -3 0 2 11 11 25 16 24 15 27 -1 45 -10 11 -21 17 -25 15 -4 -3 -11 2 -14
11 -3 8 -11 12 -17 8 -8 -5 -9 -3 -5 5 5 8 0 14 -13 18 -12 3 -21 9 -21 12 0
4 -6 8 -12 8 -7 0 -22 2 -33 5 -11 3 -42 1 -70 -5z"/>
<path d="M2345 4053 c-11 -3 -24 -10 -30 -15 -7 -8 -5 -8 5 -2 14 7 3 -6 -72
-87 -14 -16 -24 -29 -21 -29 2 0 -9 -14 -26 -31 -17 -16 -30 -33 -29 -37 2 -4
-6 -20 -16 -35 -21 -32 -35 -165 -19 -176 6 -3 2 -14 -10 -26 -11 -11 -17 -14
-13 -8 5 9 2 11 -8 7 -9 -3 -14 -9 -13 -12 4 -13 -32 -54 -42 -48 -14 9 -39
-44 -34 -69 2 -11 5 -31 7 -45 2 -14 9 -38 16 -55 28 -67 24 -107 -19 -177
-39 -64 -43 -81 -28 -105 5 -7 5 -13 1 -13 -4 0 3 -11 17 -26 22 -23 24 -24
36 -8 7 10 13 14 13 10 0 -4 7 0 16 8 8 9 28 16 44 16 16 0 32 5 35 10 4 6 9
8 13 6 4 -2 32 -7 62 -10 75 -9 82 -10 107 -24 12 -7 26 -11 30 -10 16 4 53
-14 47 -23 -3 -5 -2 -8 3 -7 11 3 54 -21 80 -46 112 -109 132 -130 128 -136
-2 -4 7 -13 20 -20 13 -7 22 -17 18 -23 -3 -5 6 -2 20 7 34 23 38 46 31 165
-6 84 -4 105 10 126 9 14 22 25 29 24 9 0 9 -2 -1 -6 -6 -2 -9 -9 -6 -15 6 -9
9 -215 3 -228 -1 -3 -3 -9 -4 -15 -1 -5 -5 -27 -9 -48 -11 -49 14 -91 50 -84
13 2 25 0 26 -5 2 -5 10 -10 18 -11 8 -2 41 -15 74 -31 53 -25 60 -26 74 -12
22 22 5 140 -39 276 -30 95 -81 194 -101 198 -9 2 -27 -8 -39 -22 -13 -14 -26
-26 -30 -26 -14 0 -6 50 12 66 10 9 16 21 13 25 -3 5 0 9 5 9 6 0 11 7 11 15
0 9 9 15 25 15 39 0 111 52 99 72 -3 4 5 12 17 19 20 10 21 9 14 -7 -4 -11 -8
-28 -10 -39 -1 -11 -3 -24 -4 -28 0 -5 -6 -5 -11 -2 -6 4 -10 3 -9 -2 4 -21
-3 -32 -21 -38 -16 -5 -18 -12 -13 -38 3 -18 10 -36 14 -42 5 -5 9 -17 9 -27
0 -10 5 -18 11 -18 5 0 7 -4 4 -10 -3 -5 -2 -10 4 -10 5 0 12 -17 16 -38 3
-22 13 -51 20 -66 8 -15 10 -24 5 -21 -6 4 -10 4 -10 0 0 -3 14 -14 32 -25 31
-19 31 -19 61 3 45 34 137 130 137 144 0 7 5 13 10 13 6 0 18 13 29 30 10 16
21 28 24 25 4 -3 5 -2 2 2 -3 3 2 17 10 30 9 13 12 23 8 23 -4 0 3 7 15 16 13
9 21 22 18 30 -3 7 0 16 6 20 7 5 8 2 3 -6 -6 -9 -4 -11 4 -6 7 5 10 14 7 22
-3 7 -1 16 5 19 10 7 43 68 59 110 7 18 5 28 -6 40 -9 8 -13 15 -9 15 3 0 -14
20 -39 45 -26 25 -44 45 -41 45 13 0 -79 90 -119 117 -22 15 -43 31 -44 36 -2
4 -22 17 -44 28 -28 14 -43 17 -52 10 -7 -6 -16 -9 -19 -6 -4 3 -5 2 -2 -1 2
-4 -17 -33 -42 -66 -43 -54 -47 -65 -50 -120 -2 -37 3 -70 12 -88 8 -15 12
-38 10 -51 -3 -12 1 -30 8 -38 11 -14 10 -14 -5 -2 -10 7 -18 19 -18 26 0 7
-7 18 -16 26 -10 8 -14 26 -13 51 2 25 -3 45 -14 58 -9 11 -13 20 -8 20 16 0
20 42 5 65 -8 12 -21 44 -29 72 -10 33 -24 57 -41 68 -25 16 -25 30 -1 30 6 0
19 14 30 32 18 31 18 32 -3 53 -12 12 -28 19 -36 16 -8 -3 -13 -2 -9 3 3 5
-12 8 -32 6 -21 -1 -43 1 -49 6 -6 5 -20 10 -31 12 -12 2 -27 8 -35 14 -7 6
-28 18 -46 27 -19 10 -30 21 -26 28 4 7 3 8 -4 4 -7 -4 -12 -1 -12 7 0 16 -46
50 -67 50 -7 0 -13 4 -13 8 0 14 -108 31 -145 22z m155 -58 c28 -14 57 -39 69
-59 18 -28 37 -41 101 -65 44 -17 98 -31 120 -31 28 0 43 -5 47 -16 8 -22 -5
-32 -68 -50 -94 -27 -103 -27 -123 -5 -40 44 -51 10 -12 -35 22 -26 28 -28
107 -29 l83 0 9 -30 c8 -25 28 -74 45 -106 1 -4 -5 -14 -14 -23 -15 -16 -15
-19 6 -41 20 -22 22 -28 11 -51 -14 -32 -7 -60 20 -74 39 -21 19 -91 -31 -109
-42 -14 -69 -2 -112 51 -37 45 -129 103 -151 95 -7 -2 13 -29 48 -63 33 -33
71 -73 85 -90 14 -17 32 -33 40 -36 11 -4 3 -18 -31 -54 -69 -72 -72 -81 -64
-198 4 -55 3 -112 -2 -124 -9 -23 -10 -23 -38 17 -44 65 -160 168 -223 200
-146 74 -276 78 -393 14 -4 -2 -10 8 -13 23 -5 20 2 42 34 94 47 80 49 103 15
204 -14 41 -25 89 -24 108 0 31 2 29 19 -20 39 -117 140 -186 267 -184 38 1
47 -4 103 -58 56 -54 80 -70 80 -54 0 7 -57 81 -94 122 -23 25 -38 32 -66 32
-45 0 -146 34 -173 58 -41 36 -77 95 -77 127 0 63 44 73 97 20 39 -39 48 -43
39 -19 -5 14 -4 15 9 4 25 -21 31 -2 10 36 -10 20 -36 45 -57 57 -36 21 -38
24 -38 75 0 69 24 119 110 222 39 47 70 89 70 94 0 16 110 -4 160 -29z m287
-251 c-3 -3 -12 -4 -19 -1 -8 3 -5 6 6 6 11 1 17 -2 13 -5z m359 -103 c68 -51
150 -133 217 -218 18 -23 18 -24 -19 -91 -92 -166 -152 -251 -230 -329 -46
-46 -87 -83 -92 -83 -5 0 -14 19 -21 43 -7 23 -29 81 -48 130 l-35 87 25 20
c14 11 31 37 38 58 15 45 14 134 -2 164 -7 13 -14 46 -15 74 -2 28 -4 55 -6
60 -3 9 93 143 103 144 3 0 42 -27 85 -59z m-238 -686 c21 -60 64 -256 58
-262 -2 -2 -25 8 -51 22 -26 13 -73 32 -104 42 -31 9 -57 17 -58 18 -1 0 5 21
13 45 9 27 15 76 14 129 -1 47 -1 93 -1 101 1 9 13 30 29 48 l27 31 26 -57
c14 -31 36 -84 47 -117z"/>
<path d="M2783 3365 c0 -8 4 -12 9 -9 5 3 6 10 3 15 -9 13 -12 11 -12 -6z"/>
<path d="M2517 3239 c7 -7 15 -10 18 -7 3 3 -2 9 -12 12 -14 6 -15 5 -6 -5z"/>
<path d="M2621 2996 c-9 -10 -7 -17 6 -27 16 -12 17 -12 6 2 -10 12 -10 18 -1
27 7 7 9 12 6 12 -3 0 -11 -6 -17 -14z"/>
<path d="M2175 4041 c-3 -5 -2 -12 3 -15 5 -3 9 1 9 9 0 17 -3 19 -12 6z"/>
<path d="M2100 3966 c0 -2 8 -10 18 -17 15 -13 16 -12 3 4 -13 16 -21 21 -21
13z"/>
<path d="M4197 3829 c7 -7 15 -10 18 -7 3 3 -2 9 -12 12 -14 6 -15 5 -6 -5z"/>
<path d="M1725 3620 c-19 -21 -27 -119 -12 -156 11 -26 57 -54 91 -54 34 0 32
11 -7 35 -40 25 -45 50 -17 80 l21 23 -26 6 c-28 7 -30 22 -10 69 10 24 -17
22 -40 -3z"/>
<path d="M1823 3565 c0 -8 4 -12 9 -9 5 3 6 10 3 15 -9 13 -12 11 -12 -6z"/>
<path d="M4066 3498 c3 -5 10 -6 15 -3 13 9 11 12 -6 12 -8 0 -12 -4 -9 -9z"/>
<path d="M3273 3083 c-15 -21 -32 -41 -38 -45 -5 -4 -6 -8 -2 -8 17 0 -115
-122 -201 -186 -12 -9 -14 -24 -8 -80 4 -38 8 -89 10 -113 3 -34 10 -50 30
-66 15 -12 34 -22 42 -22 8 0 12 2 10 4 -2 3 8 17 23 31 14 15 33 39 40 54 8
15 18 25 23 22 5 -3 8 -2 7 3 -3 9 22 65 31 73 11 10 50 109 50 127 0 10 9 43
19 73 11 30 18 62 16 72 -2 10 0 18 6 18 12 0 12 36 -1 61 -15 27 -25 24 -57
-18z m43 5 c-4 -13 -20 -76 -37 -141 -33 -132 -64 -202 -134 -295 -43 -60 -47
-63 -64 -48 -13 12 -20 38 -24 99 -4 45 -9 91 -12 102 -4 15 4 26 37 45 60 36
179 157 208 213 27 51 36 60 26 25z"/>
<path d="M1885 2954 c-80 -57 -167 -173 -179 -237 -2 -15 -7 -36 -11 -46 -11
-34 -13 -215 -3 -271 5 -30 11 -73 14 -94 3 -22 9 -47 14 -55 4 -9 11 -36 15
-61 4 -25 14 -70 22 -100 9 -30 16 -57 15 -60 0 -3 4 -13 9 -22 5 -9 11 -36
14 -59 3 -24 10 -48 14 -53 5 -6 16 -45 25 -86 9 -41 32 -106 51 -144 l35 -69
-21 -15 c-24 -16 -24 -1 2 -267 5 -55 12 -138 15 -185 7 -93 18 -125 40 -116
9 3 12 1 9 -4 -3 -6 -12 -10 -19 -10 -18 0 -79 -88 -70 -102 4 -7 3 -8 -4 -4
-7 4 -12 4 -13 -1 0 -4 -2 -18 -5 -29 -4 -25 19 -49 40 -41 7 3 17 2 22 -3 12
-12 95 31 158 81 48 38 166 174 166 192 0 14 -23 -5 -63 -49 -51 -58 -162
-138 -238 -173 -35 -16 -66 -28 -68 -26 -2 2 6 16 17 32 10 15 22 38 26 50 4
11 30 39 59 62 127 98 222 221 253 329 23 80 12 84 -24 9 -39 -84 -102 -164
-187 -240 l-65 -58 0 41 c0 46 -37 431 -46 473 -8 38 0 34 29 -16 27 -45 124
-143 134 -134 3 3 -15 37 -40 74 -65 99 -153 279 -166 343 -6 30 -32 127 -56
215 -104 376 -117 561 -53 732 17 44 39 75 91 126 38 38 71 67 74 64 2 -3 -5
-24 -17 -47 -45 -88 -90 -276 -90 -374 0 -106 33 -219 88 -306 43 -69 191
-226 245 -262 42 -28 139 -61 221 -75 67 -11 80 -33 111 -181 14 -68 36 -153
48 -190 31 -96 33 -48 7 124 -42 274 -48 287 -150 299 -64 8 -200 45 -200 55
0 4 25 5 55 2 75 -6 116 4 172 41 l48 32 38 -21 c29 -16 50 -42 86 -105 26
-46 65 -113 85 -149 68 -117 113 -213 159 -340 60 -164 58 -160 67 -160 8 0
-30 164 -61 259 -26 82 -119 273 -176 364 -24 37 -42 67 -40 67 1 0 44 -20 95
-45 51 -25 96 -45 100 -45 20 0 120 -174 157 -272 22 -60 36 -62 24 -5 -24
106 -95 255 -120 249 -8 -2 -11 0 -7 4 10 9 -73 74 -85 67 -5 -3 -12 -2 -16 3
-11 16 -52 35 -61 29 -6 -4 -10 -2 -10 3 0 22 -78 38 -86 18 -5 -12 -9 -13
-19 -3 -7 7 -11 15 -8 20 2 4 0 7 -6 7 -5 0 -13 9 -16 20 -4 11 -10 18 -15 15
-4 -3 -11 2 -14 11 -3 9 -13 14 -21 10 -8 -3 -17 0 -21 6 -5 7 -2 8 6 3 8 -5
11 -4 6 3 -11 18 -62 7 -104 -21 -55 -39 -150 -56 -181 -33 -11 8 -13 8 -7 -1
7 -12 -11 -18 -37 -14 -5 1 -6 -3 -2 -9 3 -5 0 -10 -8 -10 -19 0 -108 87 -104
102 1 7 -3 12 -10 13 -21 0 -106 88 -125 130 -6 14 -15 25 -20 25 -4 0 -7 3
-6 8 0 4 -1 14 -5 22 -35 92 -44 147 -42 248 4 111 4 117 26 192 18 63 20 73
21 88 1 6 6 12 11 12 6 0 8 3 4 6 -3 4 3 24 13 45 25 47 25 61 2 75 -14 9 -23
8 -37 -2z"/>
<path d="M2099 2953 c-13 -16 -12 -17 4 -4 9 7 17 15 17 17 0 8 -8 3 -21 -13z"/>
<path d="M3255 2560 c10 -11 20 -20 23 -20 3 0 -3 9 -13 20 -10 11 -20 20 -23
20 -3 0 3 -9 13 -20z"/>
<path d="M3495 2429 c-24 -55 -85 -272 -85 -305 0 -32 23 -10 49 49 28 60 81
251 81 288 0 39 -19 26 -45 -32z"/>
<path d="M2153 2445 c0 -8 4 -12 9 -9 5 3 6 10 3 15 -9 13 -12 11 -12 -6z"/>
<path d="M2405 2345 c9 -41 51 -100 100 -141 88 -72 252 -134 351 -134 60 1
51 7 -77 54 -172 63 -269 122 -343 208 -37 42 -38 42 -31 13z"/>
<path d="M1820 2138 c0 -73 104 -234 224 -345 64 -60 180 -137 198 -131 4 2
-37 45 -92 96 -114 106 -252 273 -293 356 -16 31 -30 56 -33 56 -2 0 -4 -15
-4 -32z"/>
<path d="M1876 2162 c-3 -5 1 -9 9 -9 8 0 12 4 9 9 -3 4 -7 8 -9 8 -2 0 -6 -4
-9 -8z"/>
<path d="M2931 2086 c-9 -11 -9 -16 1 -22 7 -4 10 -4 6 1 -4 4 -3 14 3 22 6 7
9 13 6 13 -2 0 -10 -6 -16 -14z"/>
<path d="M3363 2067 c0 -7 9 -13 19 -13 10 0 18 1 18 3 0 1 -8 7 -18 12 -13 7
-19 6 -19 -2z"/>
<path d="M3023 1955 c0 -8 4 -12 9 -9 5 3 6 10 3 15 -9 13 -12 11 -12 -6z"/>
<path d="M2890 1869 c0 -5 26 -22 58 -37 48 -23 61 -35 85 -79 19 -35 31 -76
35 -120 7 -71 0 -226 -13 -255 -4 -10 -3 -18 2 -18 17 0 54 93 62 155 10 75
-2 182 -28 235 -22 45 -22 45 39 26 39 -11 47 -18 58 -52 20 -58 26 -219 13
-315 -16 -114 -60 -276 -121 -449 -69 -193 -120 -350 -120 -368 0 -9 -6 -12
-16 -8 -9 3 -41 6 -72 7 -57 0 -57 0 -32 17 117 79 166 209 176 467 8 186 -7
186 -30 0 -24 -200 -56 -300 -116 -369 -40 -45 -77 -65 -150 -82 -60 -14 -67
-13 -48 7 111 115 189 303 187 448 l0 66 -28 -110 c-32 -125 -72 -210 -142
-305 -75 -103 -77 -104 -146 -90 -32 7 -112 30 -178 52 -117 39 -124 40 -297
45 -98 3 -178 9 -178 14 0 5 13 9 28 9 46 0 116 25 179 63 32 19 92 52 133 72
99 50 171 104 220 166 58 74 49 80 -21 14 -45 -41 -100 -76 -198 -125 -75 -38
-173 -88 -218 -111 -72 -37 -84 -40 -99 -28 -16 13 -16 12 -5 -8 10 -19 9 -23
-2 -23 -19 0 -38 -23 -29 -35 16 -22 62 -34 144 -37 49 -2 84 1 81 6 -4 5 -1
6 5 2 10 -6 44 -11 133 -20 14 -2 30 -5 35 -8 8 -5 78 -29 94 -33 50 -13 67
-18 80 -23 16 -6 53 -13 82 -15 9 -1 14 -5 12 -9 -3 -5 20 -6 50 -4 31 2 58 0
61 -5 8 -12 92 -11 116 2 17 8 24 6 40 -15 13 -16 25 -23 36 -19 9 4 14 2 11
-3 -8 -12 83 -12 104 1 9 6 36 68 62 149 26 76 53 153 60 170 8 17 31 85 52
151 20 66 42 126 48 134 9 12 8 13 -4 6 -12 -7 -13 -6 -3 6 7 8 22 60 34 114
31 141 32 354 2 450 -6 19 -37 47 -58 52 -5 1 -25 6 -42 12 -18 5 -33 7 -33 3
0 -4 -10 -13 -22 -21 -13 -7 -20 -10 -16 -7 6 7 -56 76 -70 76 -4 0 -24 4 -44
9 -23 5 -38 5 -38 0z"/>
<path d="M2757 1360 c-4 -14 -14 -68 -23 -120 -29 -178 -49 -246 -138 -478
-20 -51 -36 -97 -36 -103 0 -55 147 232 180 351 26 97 44 282 32 335 -8 36
-10 38 -15 15z"/>
<path d="M3145 1369 c-4 -6 -5 -12 -2 -15 2 -3 7 2 10 11 7 17 1 20 -8 4z"/>
<path d="M1850 664 c-17 -15 -29 -33 -26 -40 3 -7 2 -14 -2 -16 -9 -4 -82
-114 -82 -123 0 -4 -9 -19 -19 -34 -20 -28 -26 -91 -8 -91 6 0 8 -3 4 -6 -9
-10 21 -36 33 -29 6 4 17 2 24 -4 7 -6 46 -13 86 -16 41 -3 76 -7 78 -10 3 -3
10 2 17 11 10 15 13 15 29 -2 24 -24 189 -30 223 -8 15 9 24 10 28 3 9 -13
113 -7 142 9 15 8 30 9 46 3 14 -6 27 -8 29 -6 9 10 79 18 137 16 42 -2 61 1
56 8 -8 14 22 3 57 -21 20 -14 45 -18 110 -18 77 0 86 2 105 24 13 15 23 42
25 68 2 24 7 48 10 54 9 13 3 63 -9 75 -5 5 -69 16 -143 24 -74 8 -157 18
-185 21 -43 5 -71 10 -145 28 -8 2 -62 19 -120 37 -58 18 -114 33 -125 35 -83
11 -131 15 -205 19 -47 2 -97 6 -112 9 -19 5 -35 -1 -58 -20z m218 -24 c140
-10 179 -16 247 -38 168 -56 287 -80 480 -97 136 -11 138 -12 131 -48 -4 -18
-10 -53 -13 -79 l-6 -48 -99 0 c-88 0 -99 2 -94 16 3 9 -6 38 -21 65 -41 71
-56 64 -29 -13 l14 -38 -62 0 c-33 -1 -91 -7 -128 -14 l-66 -13 -7 36 c-3 20
-11 54 -16 75 -15 56 -29 28 -29 -57 l0 -68 -62 3 -63 3 -3 48 c-2 35 3 58 17
83 23 39 15 45 -16 12 -32 -36 -43 -63 -43 -110 l0 -43 -106 3 -106 3 7 47 c9
62 41 134 71 163 33 30 30 45 -3 24 -67 -42 -112 -119 -113 -192 l0 -42 -37 5
c-51 7 -144 24 -165 30 -35 10 -20 58 52 175 39 62 70 117 70 122 0 5 11 6 25
3 14 -4 92 -11 173 -16z"/>
<path d="M1886 612 c-3 -5 1 -9 9 -9 8 0 12 4 9 9 -3 4 -7 8 -9 8 -2 0 -6 -4
-9 -8z"/>
<path d="M3225 6819 c-4 -6 -5 -12 -2 -15 2 -3 7 2 10 11 7 17 1 20 -8 4z"/>
<path d="M2692 4031 c-11 -7 -11 -9 0 -14 9 -3 15 1 15 9 0 8 -1 14 -1 14 -1
0 -7 -4 -14 -9z"/>
<path d="M3046 3958 c3 -5 10 -6 15 -3 13 9 11 12 -6 12 -8 0 -12 -4 -9 -9z"/>
</g>
</svg>
